<svg xmlns="http://www.w3.org/2000/svg" data-name="Layer 1" viewBox="0 0 512 512"><path fill="#fee903" d="M408.59846,212.725c8.60946,15.57548,8.9636,27.19467,7.34765,35.27137-2.88028,14.39608-6.7221,19.2907-17.44461,35.40669-8.27649,12.43956-6.87023,27.76574,1.84532,35.95,8.327,7.81925,20.12868,6.11721,21.81963,5.84655L415.98582,348.266c-3.89371-.06685-26.4741-.81842-41.44368-18.90884-3.36086-4.06147-11.28874-13.64223-10.83181-26.09977.63249-17.24122,16.701-22.95521,30.08921-44.10183C399.56421,250.05018,406.61055,235.27454,408.59846,212.725Z"/><path fill="#fac600" d="M406.94446,247.99634c-2.88025,14.39606-6.722,19.29071-17.44458,35.40668-8.27649,12.43957-6.87024,27.76574,1.84533,35.95,8.18067,7.68194,19.708,6.175,21.71412,5.863a23.24006,23.24006,0,0,1-12.71253-5.863c-8.71545-8.18421-10.1217-23.51038-1.84534-35.94995,10.72254-16.116,14.56446-21.01062,17.44458-35.40668,1.616-8.07672,1.26185-19.69586-7.34765-35.27136a121.88522,121.88522,0,0,1-2.44946,15.95A42.55324,42.55324,0,0,1,406.94446,247.99634Z"/><path fill="#fee903" d="M508.5,239.4935c-15.24375,9.184-21.36,19.06948-23.99894,26.87208-4.70364,13.90751-3.82384,20.06729-2.59587,39.38541.94788,14.91122-7.93307,27.481-19.57307,30.21091-11.121,2.60816-20.49055-4.76668-21.81963-5.84655l-6.18063,23.06643c3.40548,1.889,23.33644,12.52828,45.34569,4.34631,4.94133-1.83691,16.59746-6.17015,22.43051-17.18716,8.07287-15.24758-2.98588-28.23029-4.0071-53.23791C497.66129,276.33521,498.94679,260.016,508.5,239.4935Z"/><path fill="#fac600" d="M508.5,239.49353c-14.96851,9.01819-21.12744,18.70789-23.84375,26.44251a89.378,89.378,0,0,0-.5553,14.167c1.02124,25.00763,12.08,37.99029,4.00708,53.23791-5.833,11.017-17.48913,15.35022-22.43054,17.18714a51.774,51.774,0,0,1-30.97778,1.28057q-.18384.68657-.36792,1.37311c3.40551,1.889,23.33654,12.52832,45.3457,4.34632,4.94141-1.83692,16.59753-6.17011,22.43054-17.18714,8.07288-15.24762-2.98584-28.23028-4.00708-53.23791C497.66138,276.33521,498.94678,260.01593,508.5,239.49353Z"/><path fill="#fee903" d="M440.0517,331.7726l.00005,0a72.83459,72.83459,0,0,1,9.24849-39.39477,18.97429,18.97429,0,0,1,17.92067-9.63972,2.22559,2.22559,0,0,0,2.1202-3.29789,87.70978,87.70978,0,0,1-10.85736-44.72953,2.22254,2.22254,0,0,0-4.17852-1.11963,87.70993,87.70993,0,0,1-31.76751,33.30823,2.22558,2.22558,0,0,0,.1872,3.91615A18.9743,18.9743,0,0,1,433.42481,288.124a72.8344,72.8344,0,0,1-11.688,38.74111l0,.00006Z"/><path fill="#fac600" d="M469.34106,279.44019a87.71226,87.71226,0,0,1-10.8573-44.72956,2.22259,2.22259,0,0,0-4.17858-1.11963c-1.28516,2.37195-2.78492,4.86255-4.50855,7.40943a87.272,87.272,0,0,0,10.46094,33.7575,2.22563,2.22563,0,0,1-2.12036,3.29786,18.97447,18.97447,0,0,0-17.92066,9.63971,72.836,72.836,0,0,0-9.24841,39.39477l-.00012.00006L422.939,324.939c-.417.6908-.82116,1.33741-1.20214,1.92615v.00006l18.31494,4.90741h0a72.83318,72.83318,0,0,1,9.24853-39.39477A18.97411,18.97411,0,0,1,467.221,282.7381,2.22559,2.22559,0,0,0,469.34106,279.44019Z"/><rect width="25.58" height="32.686" x="415.341" y="323.289" fill="#fdb441" rx="5.564" transform="rotate(-165 428.13 339.632)"/><path fill="#fea613" d="M439.34058,325.71606l-2.94092-.788a5.61882,5.61882,0,0,1-.12464.60272l-2.62707,9.80448a16.97141,16.97141,0,0,1-20.78563,12.00064h0a5.56346,5.56346,0,0,0,4.059,6.212l13.9596,3.74042a5.5642,5.5642,0,0,0,6.81471-3.9345l5.57946-20.823A5.56418,5.56418,0,0,0,439.34058,325.71606Z"/><path fill="#fee903" d="M407.07218,353.20249h0a7.12947,7.12947,0,0,1,7.12947,7.12947V483.24589a0,0,0,0,1,0,0h-14.259a0,0,0,0,1,0,0V360.332A7.12948,7.12948,0,0,1,407.07218,353.20249Z" transform="rotate(-165 407.072 418.224)"/><path fill="#fac600" d="M422.50659,355.04437,391.9751,468.989a7.126,7.126,0,0,1-7.01056,5.27631A7.12685,7.12685,0,0,0,398.9751,475.989l31.8125-118.7257Z"/><path fill="#3c3b42" d="M228.56188,86.10789h54.8762a21.09983,21.09983,0,0,1,21.09983,21.09983v20.67637a0,0,0,0,1,0,0H207.46205a0,0,0,0,1,0,0V107.20771A21.09983,21.09983,0,0,1,228.56188,86.10789Z"/><path fill="#2c2c2e" d="M304.43723,105.21344c-.04028-.42865-.11133-.84711-.17676-1.26788-.03186-.198-.05371-.39893-.09082-.59485-.1018-.55017-.23242-1.08863-.376-1.6228-.01221-.045-.02246-.09095-.03491-.13587-.16016-.58057-.34607-1.14856-.55347-1.70776V99.884h0a21.08768,21.08768,0,0,0-19.76721-13.77612h-14q.56712,0,1.12693.02964c8.811.46468,8.28024,13.74648-.543,13.74648H208.79465a21.01033,21.01033,0,0,0-1.33252,7.32367v20.67639h97.07581V107.2077C304.53794,106.53412,304.5012,105.86975,304.43723,105.21344Z"/><path fill="#3c3b42" d="M249.56188,58.33169h12.8762A21.09983,21.09983,0,0,1,283.5379,79.43151v6.67637a0,0,0,0,1,0,0H228.46205a0,0,0,0,1,0,0V79.43151A21.09983,21.09983,0,0,1,249.56188,58.33169Z"/><path fill="#2c2c2e" d="M264.18333,58.4198a20.99489,20.99489,0,0,1,5.35461,14.01172h0a6.67638,6.67638,0,0,1-6.67638,6.67638H228.78574l-.32361.32361v6.67639h55.07581V79.43152A21.08987,21.08987,0,0,0,264.18333,58.4198Z"/><path fill="#3c3b42" d="M145.67775,380.343q.28827-.67671.63777-1.39585a241.53771,241.53771,0,0,0,23.12737-127.60526v-.00008s-.77685-27.0712-1.79016-39.62067l-1.76623-12.93552a74.78422,74.78422,0,0,1,74.0967-84.9015h32.11566a74.78392,74.78392,0,0,1,74.09635,84.9015l-1.76629,12.93552c-1.01325,12.54947-1.79016,39.62067-1.79016,39.62067v.00008a241.53771,241.53771,0,0,0,23.12737,127.60526q.34872.71844.63777,1.39585"/><path fill="#2c2c2e" fill-rule="evenodd" d="M365.76611,378.94714q-4.21289-8.67975-7.69384-17.63757l-37.76563-11.26508a24.87419,24.87419,0,0,1-12.43032-8.435,6.98968,6.98968,0,0,1,.83392-9.49585A78.17279,78.17279,0,0,0,334.41388,274.089V240.833L177.59106,238.9314V274.089a78.17268,78.17268,0,0,0,25.70365,58.02461,6.98968,6.98968,0,0,1,.83393,9.49583,24.87416,24.87416,0,0,1-12.43028,8.43506l-37.67883,11.2392q-3.4909,8.96109-7.704,17.66345-.34881.71843-.63782,1.39582h220.7262Q366.11554,379.6663,365.76611,378.94714Z"/><path fill="#2c2c2e" d="M165.88645 198.78558l.97778 7.16132a44.986 44.986 0 0 0 28.84839-77.56043 75.3417 75.3417 0 0 0-15.63525 15.51612 44.86284 44.86284 0 0 1-14.88989 44.37878A75.80955 75.80955 0 0 0 165.88645 198.78558zM365.76609 378.94714a241.5372 241.5372 0 0 1-23.12732-127.60528v-.00006s.777-27.07123 1.79016-39.62067l1.76636-12.93555a74.78393 74.78393 0 0 0-74.09644-84.90149h-14a74.78393 74.78393 0 0 1 74.09644 84.90149l-1.76636 12.93555c-1.01318 12.54944-1.79016 39.62067-1.79016 39.62067v.00006a241.5372 241.5372 0 0 0 23.12732 127.60528q.34881.71843.63782 1.39582h14Q366.11552 379.6663 365.76609 378.94714z"/><path fill="#aa6a51" d="M106.23238,240.77837c12.66259,7.94492,21.37644,24.56217,21.37644,43.7749,0,26.92789-17.11735,48.75725-38.23267,48.75725s-38.23268-21.82936-38.23268-48.75725c0-19.11209,8.62281-35.65582,21.17779-43.64934"/><path fill="#935b44" d="M106.2324,240.77838,92.30784,240.83c12.621,7.96386,21.301,24.5495,21.301,43.72332,0,23.87708-13.46215,43.73182-31.23266,47.92731a30.39838,30.39838,0,0,0,7,.83c21.11523,0,38.23266-21.82941,38.23266-48.75727C127.60886,265.34052,118.895,248.72327,106.2324,240.77838Z"/><path fill="#d1a08f" d="M104.94516,315.22393V263.25172H73.80722v57.53334a44.43657,44.43657,0,0,0,44.43657,44.43657h97.5334V350.08381l-84.04185-6.06625A28.86854,28.86854,0,0,1,104.94516,315.22393Z"/><path fill="#c68d7a" d="M131.73533,344.01758a28.86858,28.86858,0,0,1-26.79016-28.79364V263.25171H73.80723v14H90.94517v51.97223a28.86858,28.86858,0,0,0,26.79016,28.79364l84.04187,6.06622v1.13782h14V350.0838Z"/><path fill="#bc7c63" d="M93.62349,284.77837H85.1288A16.4786,16.4786,0,0,1,68.916,271.24755l-3.82511-21.03809a8,8,0,0,1,7.871-9.43109h32.8286a8,8,0,0,1,7.871,9.43109l-3.82511,21.03809A16.4786,16.4786,0,0,1,93.62349,284.77837Z"/><path fill="#aa6a51" d="M106.72678,240.833a7.98437,7.98437,0,0,1-.06543,2.37646l-3.825,21.03809a16.47878,16.47878,0,0,1-16.21289,13.53082H78.12888a16.4098,16.4098,0,0,1-7.60571-1.87591,16.471,16.471,0,0,0,14.60571,8.87591h8.49463a16.47878,16.47878,0,0,0,16.21289-13.53082l3.825-21.03809A8.00093,8.00093,0,0,0,106.72678,240.833Z"/><path fill="#26a6fe" d="M342.63875 251.34186v-.00012s.18415-6.41529.49-14.44765a13.13252 13.13252 0 0 0-13.11929-13.63237h-5.88936v40.23822h5.4249a13.17021 13.17021 0 0 0 13.08256-12.03654zM187.8849 223.26172h-5.81272a13.13253 13.13253 0 0 0-13.11929 13.63234c.30587 8.03237.49 14.44768.49 14.44768v.00012l.01116.12154a13.1702 13.1702 0 0 0 13.08256 12.03654h5.3483z"/><path fill="#8ac9fe" d="M414.9861,501.82129v-62.2717A60,60,0,0,0,372.1367,382.053l-64.56474-19.259a20,20,0,0,1-14.28314-19.16553V317.02624h-74.5727v26.60228A20,20,0,0,1,204.433,362.79405l-64.56475,19.259a60,60,0,0,0-42.8494,57.49658v62.2717a10,10,0,0,0,10,10H404.9861A10,10,0,0,0,414.9861,501.82129Z"/><path fill="#26a6fe" d="M247.188,498.46631a140.961,140.961,0,0,1-10.92822-12.20978,7.03766,7.03766,0,0,0-6.75818-9.25214,134.61,134.61,0,0,1-9.58166-16.89782,6.82936,6.82936,0,0,0,.41846-5.585l-.08936-.24274a6.9205,6.9205,0,0,0-4.62524-4.242,132.84536,132.84536,0,0,1-5.812-19.86573,6.82439,6.82439,0,0,0,1.62427-5.52533c-.0039-.02795-.038-.25036-.04284-.27832a6.88593,6.88593,0,0,0-3.38282-4.86139,141.39408,141.39408,0,0,1-1.11877-19.72253,6.88711,6.88711,0,0,0,3.97388-6.11475l.00292-.1983a6.86589,6.86589,0,0,0-3.31433-5.95929,146.085,146.085,0,0,1,4.03772-22.86768,3.46828,3.46828,0,0,0-.04419-1.88885c-.03881.01184-.07556.02777-.1145.03937l-7.13183,2.12732a154.14978,154.14978,0,0,0-3.74585,22.32855,6.89785,6.89785,0,0,0-3.68262,6.02038l-.00293.19635a6.86414,6.86414,0,0,0,3.02978,5.78388,148.79471,148.79471,0,0,0,1.06348,20.273,6.87219,6.87219,0,0,0-3.35876,7.049l.01745.11078a6.936,6.936,0,0,0,5.51319,5.74158,139.70331,139.70331,0,0,0,5.66467,19.36309,6.85768,6.85768,0,0,0-1.61609,7.27491l.04663.12909a6.965,6.965,0,0,0,6.55408,4.57208c.0393,0,.0791-.00946.11853-.01013a141.51936,141.51936,0,0,0,9.58472,16.85589,6.89713,6.89713,0,0,0,.43579,7.36029l.15185.209A6.86264,6.86264,0,0,0,229.64182,491a6.995,6.995,0,0,0,1.33289-.1441,148.133,148.133,0,0,0,11.27771,12.57525,3.50033,3.50033,0,1,0,4.93554-4.96484Z"/><path fill="#935b44" d="M222.64185,491a6.86255,6.86255,0,0,1-5.56676-2.82087l-.1518-.209a6.91162,6.91162,0,0,1,1.62206-9.67612A7.01414,7.01414,0,1,1,222.64185,491Z"/><path fill="#87523e" d="M228.27488,479.90717a6.945,6.945,0,0,0-4.17871-2.73676,6.96773,6.96773,0,0,1-1.55493,9.65851,7.04322,7.04322,0,0,1-4.13538,1.347,6.96219,6.96219,0,0,1-1.44788-.1582l.11719.16138A6.86264,6.86264,0,0,0,222.64182,491a7.04357,7.04357,0,0,0,4.1355-1.34705A6.9713,6.9713,0,0,0,228.27488,479.90717Z"/><path fill="#935b44" d="M206.78429,463.764a6.96478,6.96478,0,0,1-6.554-4.57207l-.04663-.12909a6.88756,6.88756,0,0,1,4.12031-8.8696,6.97941,6.97941,0,0,1,8.945,4.08558l.08938.24277a6.89083,6.89083,0,0,1-4.199,8.834A7.01937,7.01937,0,0,1,206.78429,463.764Z"/><path fill="#87523e" d="M212.40149,452.67119a6.94508,6.94508,0,0,0-4.17871-2.73676,6.96772,6.96772,0,0,1-1.55493,9.65851,7.0432,7.0432,0,0,1-4.13537,1.34705,6.962,6.962,0,0,1-1.44788-.15821l.11719.16138a6.86259,6.86259,0,0,0,5.56665,2.82086,7.0436,7.0436,0,0,0,4.1355-1.347A6.97131,6.97131,0,0,0,212.40149,452.67119Z"/><path fill="#935b44" d="M190.6043,426.57253a6.98247,6.98247,0,0,1,13.78887-2.205c.00488.02793.039.25035.04287.27828a6.91288,6.91288,0,0,1-5.87624,7.84467,7.05355,7.05355,0,0,1-1.03963.077,6.95913,6.95913,0,0,1-6.89833-5.88422"/><path fill="#87523e" d="M203.16492,421.47693a6.94508,6.94508,0,0,0-4.17871-2.73676,6.96772,6.96772,0,0,1-1.55493,9.65851,7.04323,7.04323,0,0,1-4.13538,1.347,6.962,6.962,0,0,1-1.44787-.15821l.11719.16138a6.86259,6.86259,0,0,0,5.56665,2.82086,7.04355,7.04355,0,0,0,4.13549-1.347A6.97131,6.97131,0,0,0,203.16492,421.47693Z"/><path fill="#935b44" d="M196.86964,400.46791c-.03515,0-.06932,0-.10447-.001a6.9459,6.9459,0,0,1-6.89525-7.00026l.00293-.19637a6.86952,6.86952,0,0,1,7.09931-6.79908,6.94534,6.94534,0,0,1,6.89623,6.9993l-.00293.1983A6.951,6.951,0,0,1,196.86964,400.46791Z"/><path fill="#87523e" d="M202.49774,389.37507a6.945,6.945,0,0,0-4.17871-2.73675,6.96771,6.96771,0,0,1-1.55493,9.6585,7.04323,7.04323,0,0,1-4.13538,1.347,6.96279,6.96279,0,0,1-1.44788-.1582l.11719.16137a6.86263,6.86263,0,0,0,5.56665,2.82087,7.04359,7.04359,0,0,0,4.1355-1.34705A6.97131,6.97131,0,0,0,202.49774,389.37507Z"/><path fill="#26a6fe" d="M306.61419,375.236c-28.167,26.42273-72.89869,26.42267-101.065,0-3.78506-3.40735-3.9137-10.14844-.76317-14.65564.03654-.054.07371-.10791.11068-.16165,2.96382-4.24912,7.42361-5.3024,10.51368-2.48419a59.30668,59.30668,0,0,0,81.34264,0c3.08975-2.81793,7.55-1.7649,10.51368,2.48422q.05481.08079.11068.16162C310.52778,365.08741,310.39935,371.82893,306.61419,375.236Z"/><path fill="#26a6fe" d="M382.053,386.01a60.06066,60.06066,0,0,0-9.91626-3.957l-60.86719-18.156c-2.14038,10.29255-4.90845,21.43586-8.53858,33.24262a368.051,368.051,0,0,1-17.48681,45.749A369.17161,369.17161,0,0,1,243.701,511.82129H379.55186A217.42352,217.42352,0,0,0,382.053,386.01Z"/><path fill="#fee903" d="M365.55186,511.82129a217.74715,217.74715,0,0,0,10.0802-52.09937,219.43614,219.43614,0,0,0-9.22815-79.379L307.572,362.794a19.94341,19.94341,0,0,1-8.96424-5.6037,368.50248,368.50248,0,0,1-9.87683,39.94934,368.051,368.051,0,0,1-17.48681,45.749A369.17161,369.17161,0,0,1,229.701,511.82129Z"/><path fill="#fac600" d="M290.78322,390.7335c.58081,2.9481,4.20094,19.28052,20.179,26.44474a34.48341,34.48341,0,0,0,19.19539,2.56887,4.8896,4.8896,0,0,0,2.37171-8.66865c-8.84559-6.91528-13.14475-13.9409-15.41545-19.62868-4.74745-11.8918-3.07182-24.05881-9.73135-26.38769-2.34488-.82-8.68338-1.4556-12.31912,1.93644-.00012.00008-.06674.06232-.13738.13136C291.91782,370.07258,288.69334,380.12646,290.78322,390.7335Z"/><path fill="#fac600" d="M366.40391,380.343,307.572,362.794a19.94341,19.94341,0,0,1-8.96424-5.6037c-.80407,4.26068-1.725,8.69909-2.76525,13.28094l0,0c40.7587,12.15791,68.26857,50.54735,65.9873,93.01949q-.08626,1.60617-.1978,3.23116a217.29367,217.29367,0,0,1-7.94849,45.09937h11.86829a217.74715,217.74715,0,0,0,10.0802-52.09937A219.43614,219.43614,0,0,0,366.40391,380.343Z"/><path fill="#d1a08f" d="M290.041,383.49233c.10032,2.598,1.00014,17.045,13.69514,25.31576a29.83754,29.83754,0,0,0,16.06257,4.77507,4.23082,4.23082,0,0,0,3.19207-7.09106c-6.63178-7.09958-9.36257-13.68259-10.53924-18.84948-2.46011-10.80273.60705-20.97764-4.77243-23.86314-1.89416-1.016-7.22674-2.411-10.79027-.00009-.00012.00005-.06543.0443-.13508.09382C293.78705,365.98434,289.67991,374.14488,290.041,383.49233Z"/><path fill="#c68d7a" d="M322.99082,406.49213c-6.63171-7.09961-9.36255-13.68262-10.53918-18.84949-2.46021-10.80274.60693-20.97766-4.77246-23.86316-1.89417-1.016-7.22681-2.411-10.79029-.00012-.00012.00006-.06543.04431-.135.09387a14.82967,14.82967,0,0,0-4.04724,5.77057,13.4547,13.4547,0,0,1,7.97254,1.13568c5.37939,2.8855,2.31225,13.06042,4.77246,23.86316,1.16491,5.11554,3.85937,11.61993,10.34863,18.63879a32.2773,32.2773,0,0,0,3.99853.30176A4.23081,4.23081,0,0,0,322.99082,406.49213Z"/><path fill="#26a6fe" fill-rule="evenodd" d="M218.71616,317.02625V337.973a67.82856,67.82856,0,0,0,44.28626,16.38391h.00012a67.80382,67.80382,0,0,0,30.59534-7.26184,20.01019,20.01019,0,0,1-.30909-3.46649V317.02625Z"/><path fill="#8ac9fe" fill-rule="evenodd" d="M256.00254,340.35688h-.00014a68.11751,68.11751,0,0,1-68.11751-68.11751V216.26175a34.91051,34.91051,0,0,1,14.6192-28.40787l0,0a44.07891,44.07891,0,0,1,39.55933-5.94845l0,0a44.07893,44.07893,0,0,0,27.878,0l0,0a44.079,44.079,0,0,1,39.55933,5.94844l0,0a34.91054,34.91054,0,0,1,14.6192,28.40787v55.97762A68.11751,68.11751,0,0,1,256.00254,340.35688Z"/><path fill="#26a6fe" fill-rule="evenodd" d="M309.501,187.85388h-.00012a44.03016,44.03016,0,0,0-13.23413-6.41748,34.89926,34.89926,0,0,1,13.85339,27.82532v55.97766a68.11756,68.11756,0,0,1-68.11755,68.11749h-.00012a67.98222,67.98222,0,0,1-23.17554-4.05023,67.77735,67.77735,0,0,0,37.17554,11.05023h.00012a68.11756,68.11756,0,0,0,68.11755-68.11749V216.26172A34.91056,34.91056,0,0,0,309.501,187.85388Z"/><path fill="#fff" d="M274.65,219.59681a186.27366,186.27366,0,0,1-37.29956,0,6.10586,6.10586,0,0,1-5.70947-6.71735h0a6.27531,6.27531,0,0,1,6.91089-5.22235,174.27206,174.27206,0,0,0,34.89673,0,6.27552,6.27552,0,0,1,6.91089,5.22235h0A6.10506,6.10506,0,0,1,274.65,219.59681Z"/><path fill="#fff" d="M282.79169,230.71436a198.27416,198.27416,0,0,1-53.583,0c-3.849-.52325-6.48059-3.7207-5.895-6.98032h0c.58594-3.26376,3.94189-5.39462,7.5166-4.90963a186.27192,186.27192,0,0,0,50.33985,0c3.5736-.48484,6.93176,1.646,7.5166,4.90963h0C289.27045,226.99357,286.64105,230.19114,282.79169,230.71436Z"/><path fill="#d1a08f" d="M306.61419,365.52865c-28.167,26.42273-72.89869,26.42267-101.065,0-3.78506-3.40735-3.9137-10.14843-.76317-14.65564.03654-.054.07371-.10791.11068-.16165,2.96382-4.24911,7.42361-5.3024,10.51368-2.48419a59.30668,59.30668,0,0,0,81.34264,0c3.08975-2.81793,7.55-1.76489,10.51368,2.48422q.05481.0808.11068.16162C310.52778,355.38,310.39935,362.12155,306.61419,365.52865Z"/><path fill="#c68d7a" d="M307.37742,350.873q-.05584-.08076-.11072-.16163a9.026,9.026,0,0,0-5.408-3.9273c1.46765,4.14648.78821,9.01483-2.24451,11.74457-26.54736,24.90344-67.80346,26.32489-96.04248,4.2854a8.48289,8.48289,0,0,0,1.97742,2.7146c28.16638,26.42266,72.89807,26.42272,101.06506,0C310.39939,362.12152,310.52781,355.38,307.37742,350.873Z"/><path fill="#f3f0f3" d="M150.7239,108.999c-1.32839,0-2.64.06929-3.93928.182a44.98954,44.98954,0,0,1-20.63691,82.509A44.99839,44.99839,0,1,0,150.7239,108.999Z"/><path fill="#e2dee2" d="M163.53916,110.86121a44.99752,44.99752,0,0,1-34.51526,80.4743c-.95044.14453-1.9071.27045-2.87622.35455a44.99856,44.99856,0,1,0,37.39148-80.82885Z"/><ellipse cx="256" cy="219" fill="#d1a08f" rx="8.096" ry="19.931"/><path fill="#c68d7a" d="M256,199.0686a19.38078,19.38078,0,0,0-3.5,3.93061,30.14933,30.14933,0,0,1,0,32.00158,19.38078,19.38078,0,0,0,3.5,3.93061c4.85278-4.0802,8.09631-11.47962,8.09631-19.9314S260.85276,203.1488,256,199.0686Z"/><circle cx="345.5" cy="424.5" r="7.5" fill="#fe9738"/><circle cx="303.738" cy="440.345" r="7.5" fill="#fe9738"/><circle cx="347" cy="469.5" r="7.5" fill="#fe9738"/><circle cx="281" cy="483" r="7.5" fill="#fe9738"/><circle cx="317" cy="501" r="7.5" fill="#fe9738"/><path d="M384.10291,101.8125a3.49976,3.49976,0,1,0-6.47753,2.65234c1.04736,2.55811,2.11718,5.085,3.17919,7.51075a3.50012,3.50012,0,0,0,6.41211-2.8086C386.17664,106.793,385.12928,104.31885,384.10291,101.8125Zm5.333-32.18506q1.467,3.72949,2.8711,7.4917a3.50009,3.50009,0,1,0,6.55371-2.46q-1.42969-3.80859-2.91016-7.59326a3.50007,3.50007,0,1,0-6.51465,2.56152Zm2.17285,64.36817a3.50011,3.50011,0,0,0,6.127-3.38575c-1.249-2.26025-2.50147-4.62353-3.72266-7.0249a3.49983,3.49983,0,0,0-6.23926,3.17285C389.03065,129.23047,390.32118,131.66553,391.60877,133.99561ZM359.50526,59.91406c1.13818,2.18262,2.25683,4.50049,3.41894,7.08643a3.4999,3.4999,0,0,0,6.38477-2.86914c-1.21875-2.71143-2.39551-5.1499-3.59766-7.45459a3.49983,3.49983,0,1,0-6.20605,3.2373ZM326.39442,7.96875c2.57861.39551,5.12988.91064,7.58349,1.53125a3.5,3.5,0,1,0,1.7168-6.78613c-2.66894-.6753-5.44092-1.23535-8.23974-1.66407a3.49988,3.49988,0,0,0-1.06055,6.919Zm-.26709,23.82471a50.79339,50.79339,0,0,1,5.19433,1.36621q1.03638.33691,2.03272.71484a3.50012,3.50012,0,0,0,2.4834-6.54492q-1.15357-.438-2.356-.82813a57.723,57.723,0,0,0-5.917-1.55859,3.49989,3.49989,0,0,0-1.4375,6.85059Zm25.04541,15.17773a3.49992,3.49992,0,0,0,5.41113-4.44043,55.29991,55.29991,0,0,0-5.94775-6.22412,3.5,3.5,0,1,0-4.65332,5.22949A48.29672,48.29672,0,0,1,351.17274,46.97119Zm20.15967-12.229a3.49981,3.49981,0,0,0,5.60449-4.19336c-1.71387-2.29053-3.51514-4.47168-5.35449-6.48291a3.5,3.5,0,0,0-5.166,4.72363C368.10145,30.63232,369.75575,32.63525,371.33241,34.74219Zm-.35547,42.50049a3.50015,3.50015,0,0,0-2.02393,4.51709q1.40479,3.68407,2.82373,7.53125a3.50006,3.50006,0,0,0,6.56348-2.4336q-1.437-3.87452-2.84619-7.59082A3.50028,3.50028,0,0,0,370.97694,77.24268Zm12.21045-22.25342a3.5,3.5,0,1,0,6.332-2.98438c-1.21875-2.58545-2.46485-5.0664-3.70361-7.37353a3.49993,3.49993,0,1,0-6.167,3.31152C380.83,50.14307,382.02039,52.51367,383.18739,54.98926ZM348.32459,14.854a62.33371,62.33371,0,0,1,6.564,3.89405,3.50007,3.50007,0,0,0,3.93555-5.78907,69.34133,69.34133,0,0,0-7.3042-4.33252,3.49973,3.49973,0,1,0-3.19532,6.22754ZM407.369,114.811c1.17627,2.58349,2.355,5.07128,3.5039,7.39453a3.49979,3.49979,0,0,0,6.27442-3.10254c-1.11572-2.25635-2.26221-4.67627-3.40723-7.19239a3.50011,3.50011,0,1,0-6.37109,2.9004Zm48.75537,54.68408c2.4541,1.26172,4.99414,2.4497,7.54785,3.53027a3.5,3.5,0,0,0,2.72852-6.44629c-2.395-1.01367-4.77588-2.127-7.07618-3.30957a3.5,3.5,0,1,0-3.20019,6.22559Zm-.24219,26.60058c2.52442,1.02246,5.15576,1.97852,7.8208,2.84229a3.50009,3.50009,0,0,0,2.15821-6.65918c-2.50733-.8125-4.98047-1.71143-7.35108-2.67139a3.50014,3.50014,0,0,0-2.62793,6.48828Zm-13.95947-35.31787a3.50021,3.50021,0,0,0,4.10449-5.6709c-2.09473-1.51611-4.1626-3.13574-6.145-4.814a3.5003,3.5003,0,0,0-4.52246,5.34375C437.47743,157.42822,439.68543,159.1582,441.92274,160.77783Zm46.93164,36.61572c-2.63428-.352-5.25195-.77392-7.77979-1.2539a3.4999,3.4999,0,0,0-1.30566,6.877c2.65283.50391,5.39746.94629,8.15771,1.31543a3.50011,3.50011,0,0,0,.92774-6.93848ZM479.4159,178.3916c2.65283.7002,5.37891,1.32129,8.102,1.84668a3.49991,3.49991,0,0,0,1.32618-6.87305c-2.56934-.4956-5.14063-1.08154-7.64209-1.74218a3.50013,3.50013,0,1,0-1.78614,6.76855Zm24.854,3.957c1.43652.08789,2.80468.14893,4.09619.18994.03808.00147.07568.002.11328.002a3.49991,3.49991,0,0,0,.10937-6.998c-1.22705-.03906-2.52587-.09717-3.89013-.18115a3.50022,3.50022,0,1,0-.42871,6.9873Zm-98.32618-38.18115a3.49992,3.49992,0,0,0-5.82617,3.87988c1.54492,2.32032,3.13721,4.59082,4.73194,6.74805a3.5,3.5,0,1,0,5.6289-4.16113C408.95155,148.56885,407.42567,146.39307,405.94373,144.16748Zm-7.95605-51.89941q1.5249,3.95435,2.98145,7.56005a3.5,3.5,0,1,0,6.49121-2.62011q-1.43775-3.561-2.94141-7.4585a3.5,3.5,0,1,0-6.53125,2.51856ZM302.77235,7.64258a3.53929,3.53929,0,0,0,.44043-.02783c2.522-.3169,5.11914-.51661,7.71875-.59375a3.50008,3.50008,0,1,0-.208-6.99707c-2.8208.084-5.6416.30127-8.38281.6455a3.50023,3.50023,0,0,0,.43164,6.97315ZM423.63026,143.52539a3.50008,3.50008,0,0,0,5.56347-4.24853c-1.46337-1.916-2.94775-4.0625-4.41259-6.3794a3.50027,3.50027,0,0,0-5.917,3.74121C420.43885,139.12891,422.04237,141.4458,423.63026,143.52539Zm10.34424,40.50732c2.23925,1.62452,4.58642,3.1792,6.97656,4.6211a3.49982,3.49982,0,0,0,3.61621-5.99317c-2.22119-1.34082-4.40234-2.78564-6.48242-4.29394a3.5,3.5,0,1,0-4.11035,5.666ZM415.40223,167.522c1.88184,2.01612,3.84717,3.99365,5.8418,5.8794a3.5,3.5,0,0,0,4.80859-5.08692c-1.88916-1.78564-3.75049-3.65966-5.5332-5.56884a3.5,3.5,0,0,0-5.11719,4.77636Zm88.94385,38.19287q2.00684.07617,4.07178.11182l.06054.00049a3.5,3.5,0,0,0,.0586-6.99951q-1.99146-.03369-3.92578-.10791a3.50007,3.50007,0,1,0-.26514,6.99511ZM401.59278,482.07422h-.1001a3.5,3.5,0,0,0,0,7h.1001a3.5,3.5,0,0,0,0-7Zm-16.1001,0h-.10009a3.5,3.5,0,0,0,0,7h.10009a3.5,3.5,0,0,0,0-7ZM228.71717,234.1626c6.70221.90838,13.46771,1.468,20.15082,1.70227a23.40951,23.40951,0,0,0,4.857,5.72986,3.501,3.501,0,0,0,4.50489,0,23.40951,23.40951,0,0,0,4.857-5.72986c6.68311-.23432,13.44831-.79383,20.1474-1.70178,5.13819-.6919,9.01319-4.79248,9.01319-9.53858a9.12386,9.12386,0,0,0-.13623-1.5332,9.73237,9.73237,0,0,0-8.37781-7.7414,9.08827,9.08827,0,0,0,.16394-1.70538,8.51543,8.51543,0,0,0-.09522-1.27637,9.73063,9.73063,0,0,0-10.7207-8.20654c-2.79236.27741-5.66541.471-8.55475.61768a24.54125,24.54125,0,0,0-6.29681-8.40528,3.5002,3.5002,0,0,0-4.50489,0,24.54159,24.54159,0,0,0-6.29681,8.40522c-2.89087-.14673-5.76813-.3407-8.58356-.62006q-.48778-.04468-.977-.04492a9.78219,9.78219,0,0,0-9.71435,8.25342,8.97608,8.97608,0,0,0,.07928,2.98718,9.75566,9.75566,0,0,0-8.39081,7.74621,8.91269,8.91269,0,0,0,1.64454,6.8584A10.71751,10.71751,0,0,0,228.71717,234.1626Zm45.06446-23.03614a2.79032,2.79032,0,0,1,3.09619,2.27,1.63361,1.63361,0,0,1,.01953.24805,2.6826,2.6826,0,0,1-2.4206,2.41968c-2.326.23669-4.65808.41547-6.98883.56445a34.97539,34.97539,0,0,0-.67773-4.96075C269.15968,211.52472,271.495,211.35376,273.78163,211.12646Zm-6.51832,12.52869c2.45368-.14795,4.90943-.32855,7.35877-.57025l.00085.00006a3.57454,3.57454,0,0,0,.35938-.01855c.134-.01368.26324-.03962.39545-.05811,2.08795-.21466,4.171-.45166,6.2359-.73535,1.74365-.23389,3.36084.69238,3.60205,2.02051a2.0297,2.0297,0,0,1,.03174.331,3.12348,3.12348,0,0,1-2.9502,2.60156c-5.34869.72516-10.74139,1.23151-16.09344,1.51313A33.82387,33.82387,0,0,0,267.26331,223.65515Zm-11.28588-19.5531a26.39236,26.39236,0,0,1,0,29.76465,26.39231,26.39231,0,0,1,0-29.76465Zm-20.89551,9.26025a2.751,2.751,0,0,1,2.78564-2.248c.11377,0,.228.00537.31348.01318,2.28162.22669,4.61511.39746,6.96362.54053a34.97614,34.97614,0,0,0-.67773,4.96069c-2.32434-.14862-4.64923-.3266-6.96472-.56177a3.05943,3.05943,0,0,1-1.954-1.08447A2.12349,2.12349,0,0,1,235.08192,213.3623ZM226.73231,224.333c.23975-1.33692,1.86963-2.31348,3.59863-2.06153,2.08325.2862,4.18329.525,6.28772.74091.11847.01624.23456.04187.35388.054a3.56728,3.56728,0,0,0,.35938.01855l.00134-.00012c2.45.24176,4.90527.42236,7.35828.57031a33.82109,33.82109,0,0,0,1.05951,5.08405c-5.35218-.28162-10.74524-.788-16.0954-1.51313a3.69977,3.69977,0,0,1-2.51416-1.3916A1.98389,1.98389,0,0,1,226.73231,224.333ZM345.47743,435.48438a11,11,0,1,0-11-11A11.01245,11.01245,0,0,0,345.47743,435.48438Zm0-15a4,4,0,1,1-4,4A4.00458,4.00458,0,0,1,345.47743,420.48438Zm1.5,38a11,11,0,1,0,11,11A11.01245,11.01245,0,0,0,346.97743,458.48438Zm0,15a4,4,0,1,1,4-4A4.00458,4.00458,0,0,1,346.97743,473.48438ZM227.64979,249.60986a16.05613,16.05613,0,0,1-9.10889,2.63965,15.79728,15.79728,0,0,1-8.36181-2.63867,3.50007,3.50007,0,1,0-3.87012,5.833,22.79259,22.79259,0,0,0,12.06738,3.80371c.17822.00439.35449.00635.53028.00635a23.11051,23.11051,0,0,0,12.61035-3.80909,3.50007,3.50007,0,0,0-3.86719-5.835Zm39.98242,53.80323a21.01408,21.01408,0,0,1-23.30273.001,3.50007,3.50007,0,1,0-3.87012,5.833,28.06952,28.06952,0,0,0,14.85937,4.68457c.21924.00537.436.00781.65186.00781a28.45708,28.45708,0,0,0,15.52881-4.6914,3.50007,3.50007,0,1,0-3.86719-5.835ZM506.6703,236.47754c-13.15821,7.93408-21.74024,17.60889-25.5083,28.75586-4.55567,13.47265-4.11377,20.19531-3.0459,36.43652l.27832,4.28467c.80127,12.7085-6.458,24.13672-16.88574,26.582-5.63623,1.322-10.83252-.37732-14.61939-2.40228a9.01818,9.01818,0,0,0-3.32361-6.113,68.99666,68.99666,0,0,1,8.76282-29.94226,15.53439,15.53439,0,0,1,14.61279-7.86377,5.72667,5.72667,0,0,0,5.44385-8.47607,84.17744,84.17744,0,0,1-10.4292-42.94043,5.71839,5.71839,0,0,0-10.74365-2.896,84.29951,84.29951,0,0,1-30.50684,31.98731,5.72883,5.72883,0,0,0,.47168,10.0664,15.5047,15.5047,0,0,1,8.72022,14.11035,69.00536,69.00536,0,0,1-7.37366,30.31842,9.1055,9.1055,0,0,0-5.9259,3.62031c-3.87525-.12983-9.51709-1.12665-13.87573-5.22388-7.81055-7.32666-8.38233-20.85156-1.33057-31.4585l2.396-3.59082c9.04-13.52246,12.78174-19.11963,15.57276-33.064,2.30176-11.55371-.29541-24.22315-7.71924-37.65674a3.5,3.5,0,0,0-6.5498,1.38525c-1.51807,17.20117-6.32032,32.3003-14.27051,44.87451-5.1377,8.11133-10.73731,13.92334-15.67774,19.05127-7.79394,8.08985-14.5249,15.07618-14.95312,26.792-.50928,13.79,7.99805,24.0708,11.63135,28.46093,11.86346,14.33466,28.00012,18.56513,38.03527,19.75605a9.14665,9.14665,0,0,0,.63269,1.35821,9.04235,9.04235,0,0,0,2.3827,2.7l-11.091,41.39643a63.24067,63.24067,0,0,0-28.66284-18.1062l-4.21429-1.25715-.00788-.01678a239.03287,239.03287,0,0,1-23.80859-103.792c0-7.21631.3418-14.6084,1.01562-21.97119q.01026-.10841.01319-.21827c.00781-.269.78467-26.98339,1.77246-39.34228l1.75683-12.835a78.29515,78.29515,0,0,0-41.62792-80.14295V107.19434A24.6364,24.6364,0,0,0,287.01551,82.86V79.416a24.59592,24.59592,0,0,0-11.31781-20.6897,43.30274,43.30274,0,0,1,1.22162-5.45825,3.49983,3.49983,0,1,0-6.71191-1.98633c-.4245,1.434-.78333,2.93127-1.08509,4.47119a24.51932,24.51932,0,0,0-6.70691-.937h-12.876a24.62807,24.62807,0,0,0-24.6001,24.6001V82.86a24.6364,24.6364,0,0,0-21.00195,24.33435v11.95581a77.98658,77.98658,0,0,0-12.70868,8.23535,48.48919,48.48919,0,0,0-40.52716-21.9021c-1.34131,0-2.72852.064-4.24219.19531a3.50013,3.50013,0,0,0-1.61182,6.417,41.48927,41.48927,0,0,1-19.0249,76.0918,3.49982,3.49982,0,0,0-1.61182,6.4165,48.48774,48.48774,0,0,0,38.42652,6.39136l1.509,11.08667c.52246,6.47559.97559,16.76611,1.26367,24.27686.008.208.01557.41058.02338.61663.00043.01215-.00092.02405-.00043.0362.11194,2.939.20777,5.67029.28418,7.94952.12805,3.8584.20044,6.41992.20166,6.46112.002.07422.00635.14893.01319.22266a237.07126,237.07126,0,0,1-9.11939,90.659l-24.843-1.79035A25.41642,25.41642,0,0,1,112.13325,328.346c11.7597-9.58191,18.954-26.04523,18.954-43.81177,0-15.25787-5.27948-29.65613-14.48792-39.60687A11.45755,11.45755,0,0,0,105.768,237.2627H72.93934a11.45719,11.45719,0,0,0-10.83282,7.66888c-9.20893,9.9472-14.489,24.34851-14.489,39.6026,0,20.3786,9.35938,38.741,23.97608,47.31653a48.00475,48.00475,0,0,0,46.624,36.85388H147.144c-1.26141,2.89526-2.58844,5.79791-3.97809,8.666l-.01129.02453-4.308,1.285a63.90648,63.90648,0,0,0-45.34912,60.854v68.9502a3.5,3.5,0,0,0,7,0v-68.9502a56.86215,56.86215,0,0,1,40.35058-54.146l5.50568-1.64227a3.50643,3.50643,0,0,0,.59277-.17682L196.37837,368.824c-1.049,4.795-1.85846,9.64936-2.44129,14.51087a10.24563,10.24563,0,0,0-4.37176,2.4801,10.35457,10.35457,0,0,0-3.21436,7.3877l-.00293.19629a10.27589,10.27589,0,0,0,2.98291,7.416,10.5066,10.5066,0,0,0,3.51691,2.35486c.04559,4.4455.29358,8.907.74042,13.33386a10.41677,10.41677,0,0,0-3.1875,2.89575,10.27361,10.27361,0,0,0-1.82373,7.72315l.00439.02539.00586.0415a10.51106,10.51106,0,0,0,8.30438,8.65058c1.0188,4.1853,2.23419,8.33783,3.63654,12.4118a10.36327,10.36327,0,0,0-3.65625,11.99182l.04541.126a10.47317,10.47317,0,0,0,11.66272,6.71857c1.81036,3.51184,3.76739,6.95843,5.86114,10.30432a10.40848,10.40848,0,0,0-1.59173,13.921l.16015.22119a10.43465,10.43465,0,0,0,13.79328,2.75848c2.03717,2.39917,4.15832,4.73224,6.33807,6.98932q-1.84561,2.56989-3.73,5.11108a3.49983,3.49983,0,1,0,5.61328,4.18165q2.837-3.80842,5.5755-7.69037c.01166-.01728.025-.03345.03632-.05085a371.28811,371.28811,0,0,0,33.76025-58.49414,372.26456,372.26456,0,0,0,16.90448-43.82647,32.01675,32.01675,0,0,0,10.50421,11.21222,33.04368,33.04368,0,0,0,17.9253,5.33837c.03515.00049.07031.001.105.001a7.752,7.752,0,0,0,7.09668-4.625,7.57682,7.57682,0,0,0-1.40625-8.354c-5.05079-5.40869-8.30957-11.209-9.686-17.23975a57.94077,57.94077,0,0,1-1.09961-11.25732,51.54345,51.54345,0,0,0-.53869-7.17859l49.35821,14.72339a211.85063,211.85063,0,0,1,8.55695,76.318,210.19957,210.19957,0,0,1-9.19727,47.98,3.5,3.5,0,1,0,6.67578,2.10547,216.4279,216.4279,0,0,0,1.94141-124.01428,56.86817,56.86817,0,0,1,39.93115,54.01135v68.9502a3.5,3.5,0,0,0,7,0v-68.9502a62.53178,62.53178,0,0,0-1.96191-15.51514l16.90991-63.13385a9.10523,9.10523,0,0,0,4.64111-2.00091,62.426,62.426,0,0,0,24.37329,5.207,52.69266,52.69266,0,0,0,18.46973-3.30518c5.3374-1.98779,17.83594-6.64258,24.28125-18.8247,5.48291-10.36133,3.14795-19.772.44482-30.66895-1.71533-6.91357-3.65966-14.75-4.05127-24.35107-.60693-14.83936,2.78321-30.3125,10.07618-45.99073a3.49964,3.49964,0,0,0-4.98047-4.47314ZM231.93934,79.416a17.62021,17.62021,0,0,1,17.6001-17.6001h12.876a17.62021,17.62021,0,0,1,17.6001,17.6001v3.17822H231.93934Zm-21.00195,27.77832a17.6202,17.6202,0,0,1,17.60009-17.6001h54.87989a17.62021,17.62021,0,0,1,17.6001,17.6001v8.71978a78.2402,78.2402,0,0,0-28.94-5.54986H239.95741a78.28985,78.28985,0,0,0-29.02,5.58362Zm29.02,10.16992h32.12011a71.29547,71.29547,0,0,1,70.63233,80.93554l-1.77,12.93018c-.00879.06445-.01563.12891-.021.19385-.26153,3.24859-.50628,7.4256-.72632,11.84454a16.44983,16.44983,0,0,0-10.20581-3.52228h-2.38916v-3.5a38.487,38.487,0,0,0-16.085-31.25586,47.72043,47.72043,0,0,0-42.70068-6.42089,40.82532,40.82532,0,0,1-25.66406,0,47.7224,47.7224,0,0,0-42.70069,6.42089,38.487,38.487,0,0,0-16.085,31.25586v3.5h-2.3125a16.451,16.451,0,0,0-10.20349,3.52039c-.21759-4.35388-.4649-8.57581-.73059-11.84558-.00488-.063-.01172-.12549-.02-.18848l-1.701-12.49823a48.45843,48.45843,0,0,0,25.29608-65.14429A71.12861,71.12861,0,0,1,239.95741,117.36426Zm99.65136,119.38086c-.30224,7.93652-.48828,14.38379-.48925,14.38379a9.64026,9.64026,0,0,1-9.59717,8.85547h-1.92481V226.74609h2.38916a9.63274,9.63274,0,0,1,9.62207,9.999ZM290.41792,349.033a55.69172,55.69172,0,0,1-68.84461-.10761,23.4325,23.4325,0,0,0,.62433-5.31109v-8.26178a71.46495,71.46495,0,0,0,67.56983-.00275v8.26453A23.33841,23.33841,0,0,0,290.41792,349.033Zm-34.438-12.19165a64.69079,64.69079,0,0,1-64.61768-64.61768V216.24609a31.47214,31.47214,0,0,1,13.15332-25.55957A40.68849,40.68849,0,0,1,240.934,185.21a47.87389,47.87389,0,0,0,30.0918,0,40.7015,40.7015,0,0,1,36.41845,5.47656,31.47214,31.47214,0,0,1,13.15332,25.55957v55.97754A64.69078,64.69078,0,0,1,255.97987,336.84131ZM184.36219,226.74609v33.23829h-1.84814a9.64025,9.64025,0,0,1-9.59717-8.85547l-.00147-.01465c-.01464-.50482-.0791-2.68164-.18316-5.8147-.079-2.40668-.1817-5.37707-.30371-8.59228a9.62975,9.62975,0,0,1,9.62115-9.96119Zm-33.66064-31.26074a41.40378,41.40378,0,0,1-13.88379-2.38721,48.50117,48.50117,0,0,0,20.03662-80.15966,41.50289,41.50289,0,0,1-6.15283,82.54687ZM173.76771,264.507a16.55512,16.55512,0,0,0,8.74634,2.47742h1.84814v5.23925a71.57627,71.57627,0,0,0,30.83545,58.82343v12.5672c0,.1084-.01135.21564-.01349.32379a9.09812,9.09812,0,0,0-4.75165-.74127,10.8952,10.8952,0,0,0-5.74969,2.557l-40.71625-2.9342A243.5594,243.5594,0,0,0,173.76771,264.507Zm-57.59741-8.67084a53.94539,53.94539,0,0,1,7.917,28.69806c0,14.88092-5.59717,28.61792-14.83478,37.04394a25.1293,25.1293,0,0,1-.82489-6.37353V281.65527a19.90857,19.90857,0,0,0,4.82959-9.79736ZM54.61756,284.53418a53.93,53.93,0,0,1,7.91974-28.69611l2.91278,16.01984a19.90858,19.90858,0,0,0,4.8374,9.80579v39.11071c0,.5293.02295,1.05323.04,1.57843C60.622,314.08911,54.61756,300.03326,54.61756,284.53418ZM72.3368,270.606l-3.82519-21.03809a4.50094,4.50094,0,0,1,4.42773-5.30517H105.768a4.501,4.501,0,0,1,4.42774,5.30517l-3.8252,21.03809A12.97294,12.97294,0,0,1,93.601,281.2627H85.10633A12.973,12.973,0,0,1,72.3368,270.606Zm79.795,104.11139q1.3657-3.01356,2.62622-6.01276h17.53125Zm.261-13.01276c-.005.00006-.01007-.00012-.01508,0h-34.16a40.9767,40.9767,0,0,1-40.93018-40.93018v-34.1206a19.91317,19.91317,0,0,0,7.81885,1.60889h.13721v4.82714a3.5,3.5,0,0,0,7,0V288.2627H93.601a19.91347,19.91347,0,0,0,7.82666-1.61219v28.55408a32.07212,32.07212,0,0,0,2.91992,13.38348,3.48034,3.48034,0,0,0,.27527.56617,32.47835,32.47835,0,0,0,26.84339,18.34088l68.56341,4.941a16.0263,16.0263,0,0,0-.57281,9.26843Zm40.95429,31.79883.00292-.19629a3.3672,3.3672,0,0,1,3.42969-3.35352c.03949,0,.079.00049.119.00147l.00275.00012a3.51973,3.51973,0,0,1,2.47351,1.04822,3.32889,3.32889,0,0,1,.97168,2.3999l-.00293.19824a3.465,3.465,0,0,1-3.49658,3.35059v.02582c-.01777-.00263-.03608-.00348-.0539-.00592l-.0003-.02039a3.52173,3.52173,0,0,1-2.4751-1.04883A3.3296,3.3296,0,0,1,193.34706,393.50342Zm8.43212,34.13818a3.4751,3.4751,0,0,1-2.31152,1.37158,3.5472,3.5472,0,0,1-.521.03858,3.47313,3.47313,0,0,1-3.4375-2.90625c-.00341-.02295-.00732-.0459-.01123-.06836-.0039-.02832-.0083-.05713-.01269-.08545a3.32134,3.32134,0,0,1,.5918-2.49658,3.51181,3.51181,0,0,1,6.28955,1.42871l.03564.22949A3.32029,3.32029,0,0,1,201.77918,427.6416Zm8.12549,30.63086a3.41809,3.41809,0,0,1-1.96142,1.77,3.5189,3.5189,0,0,1-1.18164.20606A3.47212,3.47212,0,0,1,203.497,457.98l-.05615-.1543a3.33227,3.33227,0,0,1,.09667-2.5747,3.41684,3.41684,0,0,1,1.94629-1.78614,3.51942,3.51942,0,0,1,1.21045-.21533,3.45437,3.45437,0,0,1,3.24756,2.22315l.0835.22509A3.336,3.336,0,0,1,209.90467,458.27246Zm14.936,27.61035a3.37069,3.37069,0,0,1-1.353,2.22412,3.54463,3.54463,0,0,1-2.08545.68311,3.35309,3.35309,0,0,1-2.73242-1.374l-.14356-.19776a3.41254,3.41254,0,0,1,.80909-4.78271,3.4704,3.4704,0,0,1,.98822-.48816c.01019-.00293.02069-.00409.03088-.00714a3.47378,3.47378,0,0,1,.99554-.14875,3.55123,3.55123,0,0,1,3.49073,4.09131ZM268.039,441.40918a364.07082,364.07082,0,0,1-30.79468,54.04492c-2.04931-2.16339-4.03033-4.40527-5.93982-6.6972a10.56978,10.56978,0,0,0,.45081-1.78327,10.54532,10.54532,0,0,0-10.6651-12.175c-2.30707-3.607-4.45337-7.34143-6.41168-11.1593a10.43955,10.43955,0,0,0,1.55822-2.382,10.299,10.299,0,0,0,.36377-7.96093l-.09375-.25391a10.47628,10.47628,0,0,0-9.257-6.77319c-1.30151-3.75183-2.44036-7.57373-3.39965-11.42908a10.41119,10.41119,0,0,0,3.5556-3.03357,10.24971,10.24971,0,0,0,1.92432-7.6543c-.00586-.0415-.05567-.36474-.05616-.36523a10.46373,10.46373,0,0,0-8.787-8.61633c-.37317-3.87372-.5857-7.77283-.637-11.66053a10.46724,10.46724,0,0,0,7.4928-9.80517l.00293-.19824a10.27673,10.27673,0,0,0-2.98437-7.41651,10.521,10.521,0,0,0-3.42707-2.321,146.37355,146.37355,0,0,1,2.65552-15.0647h.25677A77.014,77.014,0,0,0,256.059,388.83008a77.96863,77.96863,0,0,0,30.44977-6.15534c.00342.31165-.0011.62488.01117.93464a37.688,37.688,0,0,0,.75836,6.0296A365.1534,365.1534,0,0,1,268.039,441.40918Zm-11.98-59.5791a70.07662,70.07662,0,0,1-48.19043-18.918c-2.33252-2.1001-2.44531-6.88965-.20508-10.09522l.08106-.11865a5.49048,5.49048,0,0,1,3.46484-2.54443,2.23622,2.23622,0,0,1,.25977-.01514,2.19887,2.19887,0,0,1,1.5122.61475,62.66211,62.66211,0,0,0,86.10742.04394,2.23169,2.23169,0,0,1,1.82032-.64355,5.45612,5.45612,0,0,1,3.44336,2.51367l.13379.19531c2.209,3.15967,2.09619,7.94971-.23633,10.04883l-.05274.04883A70.03364,70.03364,0,0,1,256.059,381.83008Zm64.35059,27.0332a.61987.61987,0,0,1,.12109.74463.71913.71913,0,0,1-.69483.457h-.01367a26.15958,26.15958,0,0,1-14.19482-4.20361c-10.70264-6.96924-11.977-19-12.11279-22.5249a26.92476,26.92476,0,0,1,.16619-4.14386,76.27249,76.27249,0,0,0,13.63446-9.63306,48.15145,48.15145,0,0,1,.42786,6.23492,63.46805,63.46805,0,0,0,1.27246,12.60889C310.6703,395.65527,314.50379,402.53906,320.40956,408.86328Zm-7.55549-48.15979a16.054,16.054,0,0,0-2.61981-11.83533l-.11963-.17431a12.11575,12.11575,0,0,0-8.42871-5.49707,9.06227,9.06227,0,0,0-4.90155.8175c-.00323-.13373-.0169-.26593-.0169-.4v-12.571a71.57608,71.57608,0,0,0,30.83007-58.81964v-5.23925h1.92481a16.56273,16.56273,0,0,0,8.75256-2.48011c-.11481,3.05512-.18762,6.09931-.18762,9.11a246.26691,246.26691,0,0,0,21.8371,101.13025Zm97.13581-16.40887c-8.91516-1.16223-22.69092-4.99628-32.77613-17.18183-3.124-3.7749-10.43994-12.61572-10.0288-23.74072.33056-9.04346,5.64453-14.55908,12.999-22.19238,5.17139-5.36768,11.03271-11.45166,16.55176-20.16455a101.13969,101.13969,0,0,0,13.67285-35.81934c2.74609,7.86621,3.44873,15.26758,2.08691,22.10156-2.51758,12.57959-5.7876,17.47119-14.52734,30.54493l-2.40527,3.60449c-8.9209,13.41894-7.90186,30.8042,2.36718,40.438A27.30067,27.30067,0,0,0,414.12831,328.85Zm2.35193,68.2138a64.38918,64.38918,0,0,0-5.1399-8.90649l12.25989-45.75946,7.01831,1.88043Zm27.52966-80.899-5.57959,20.82324a2.0636,2.0636,0,0,1-2.52783,1.459l-.05493-.01471c-.01246-.00354-.0232-.01019-.03589-.01361s-.02515-.00287-.03772-.0061l-13.72718-3.678-.01538-.0058-.01623-.00262-.07215-.01935a2.066,2.066,0,0,1-1.45947-2.52783l5.57959-20.82325a2.06863,2.06863,0,0,1,2.52783-1.45947l13.96045,3.74072a2.06384,2.06384,0,0,1,1.4585,2.52784Zm-3.12695-10.22193-6.99646-1.87475a75.85083,75.85083,0,0,0,7.1488-31.36622,22.54848,22.54848,0,0,0-10.71143-19.42138,91.18378,91.18378,0,0,0,28.77-29.3125,91.09895,91.09895,0,0,0,10.26514,39.77A22.57682,22.57682,0,0,0,446.22791,290.646a75.85127,75.85127,0,0,0-9.48339,30.74145Zm62.249,17.30005c-5.19873,9.82666-15.94678,13.82959-20.55566,15.5459-14.83765,5.517-28.68348,1.94275-36.97669-1.51032l4.13757-15.44134a27.39878,27.39878,0,0,0,17.50806,2.07031c13.71143-3.21582,23.28711-17.76318,22.27393-33.83984l-.27979-4.30127c-1.03271-15.70264-1.41894-21.57813,2.69238-33.73584,2.229-6.59473,6.53663-12.65283,12.85254-18.09619a100.92043,100.92043,0,0,0-6.06543,37.84814c.42041,10.311,2.45557,18.51416,4.251,25.75147C501.3827,323.26074,503.226,330.68994,498.99354,338.6875ZM85.06873,258.04541,81.496,254.47266a3.50031,3.50031,0,1,0-4.95019,4.95019l3.57275,3.57276a3.50032,3.50032,0,1,0,4.95019-4.9502Zm231.9087,231.939a11,11,0,1,0,11,11A11.01245,11.01245,0,0,0,316.97743,489.98438Zm0,15a4,4,0,1,1,4-4A4.00458,4.00458,0,0,1,316.97743,504.98438ZM96.059,264.0752a3.4913,3.4913,0,0,0,2.4751-1.02491l3.62744-3.62744a3.50032,3.50032,0,1,0-4.9502-4.95019l-3.62744,3.62744a3.5,3.5,0,0,0,2.4751,5.9751Zm210.57422-13.48145a3.501,3.501,0,0,0-4.85108-.98389,16.086,16.086,0,0,1-9.10839,2.63965,15.81008,15.81008,0,0,1-8.3628-2.63867,3.49979,3.49979,0,0,0-3.86914,5.833,22.79722,22.79722,0,0,0,12.06738,3.80371c.17823.00439.3545.00635.53028.00635a23.11,23.11,0,0,0,12.60986-3.80909A3.5,3.5,0,0,0,306.63319,250.59375ZM280.97743,471.98438a11,11,0,1,0,11,11A11.01245,11.01245,0,0,0,280.97743,471.98438Zm0,15a4,4,0,1,1,4-4A4.00458,4.00458,0,0,1,280.97743,486.98438ZM249.54237,51.06543a3.49549,3.49549,0,0,0,4.27-2.50391,60.51918,60.51918,0,0,1,2.3789-7.24511,3.5001,3.5001,0,1,0-6.49609-2.6084,67.48226,67.48226,0,0,0-2.65625,8.0874A3.50019,3.50019,0,0,0,249.54237,51.06543ZM111.59168,482.07422h-.10009a3.5,3.5,0,0,0,0,7h.10009a3.5,3.5,0,0,0,0-7ZM258.80164,28.814a3.49958,3.49958,0,0,0,4.91553-.57958c.82373-1.04346,1.69971-2.06836,2.602-3.04346.79883-.86182,1.63916-1.70557,2.49756-2.50781a3.50022,3.50022,0,1,0-4.78125-5.11329c-.979.91553-1.9375,1.87842-2.85156,2.86426-1.02881,1.11182-2.02539,2.27735-2.96191,3.46436A3.49984,3.49984,0,0,0,258.80164,28.814Zm27.042,1.50489a35.72859,35.72859,0,0,0-6.96,5.58886,3.49989,3.49989,0,1,0,5.041,4.85645,28.73376,28.73376,0,0,1,5.59766-4.49023,3.49985,3.49985,0,0,0-3.67871-5.95508ZM279.65809,14.4668a3.49021,3.49021,0,0,0,1.56982-.374,61.25284,61.25284,0,0,1,7.02247-2.98828,3.49984,3.49984,0,1,0-2.34082-6.59668,68.358,68.358,0,0,0-7.82715,3.33106,3.50074,3.50074,0,0,0,1.57568,6.62793Zm-77.15332,490.355c-17.96405-1.75208-33.06067-11.95221-39.42316-26.625-.01172-.02838-.02606-.05493-.03851-.08295-8.94818-20.77252,3.71832-41.37848,5.19263-43.66022a3.50015,3.50015,0,0,0-5.87989-3.79882c-1.66638,2.5791-15.84838,25.69348-6.00592,49.5675l.03913,28.267a3.49944,3.49944,0,0,0,3.5,3.49512h.00488a3.49987,3.49987,0,0,0,3.49512-3.50489l-.02283-16.49847c8.92369,10.98,22.749,18.27557,38.45886,19.80755q.17359.01685.34424.01709a3.50023,3.50023,0,0,0,.33545-6.98388ZM302.76209,31.30908a3.50188,3.50188,0,0,0,.605-.05273,55.459,55.459,0,0,1,7.54883-.76953,3.5002,3.5002,0,0,0-.24511-6.9961,62.52891,62.52891,0,0,0-8.50589.86963,3.50043,3.50043,0,0,0,.59719,6.94873ZM189.323,479.53436a3.5,3.5,0,1,0-3.5,3.5A3.5,3.5,0,0,0,189.323,479.53436Zm125.3927-39.20477a11,11,0,1,0-11,11A11.01245,11.01245,0,0,0,314.71571,440.32959Zm-11,4a4,4,0,1,1,4-4A4.00458,4.00458,0,0,1,303.71571,444.32959ZM143.79139,482.07422h-.1001a3.5,3.5,0,0,0,0,7h.1001a3.5,3.5,0,1,0,0-7Zm-16.19971,0a3.5,3.5,0,1,0,0,7h.09961a3.4577,3.4577,0,0,0,3.4502-3.5A3.54272,3.54272,0,0,0,127.59168,482.07422Z"/></svg>