<svg xmlns="http://www.w3.org/2000/svg" data-name="Layer 1" viewBox="0 0 512 512"><path fill="#fed2a4" d="M322.93277,228.98473c9.37393-11.07623,26.08457-13.44472,30.15447-14.02157,20.25822-2.87131,28.98069,7.26606,44.31512,3.38854,6.519-1.64843,14.75941-5.96292,23.02753-17.45106a6.26174,6.26174,0,0,1,10.57622.63733c10.67319,19.559,10.87447,33.802,8.45185,43.75715-6.24734,25.672-32.45232,33.13788-33.81578,55.553-.69417,11.41205,5.35407,21.71207,12.6146,29.96535a6.25174,6.25174,0,0,1-4.08047,10.35887c-15.507,1.53148-41.40631.80767-63.549-16.10873C318.518,300.53306,305.02961,250.13908,322.93277,228.98473Z"/><path fill="#ffbd86" d="M439.458,245.2951c2.42261-9.95507,2.22119-24.198-8.45191-43.75714a6.2617,6.2617,0,0,0-10.57617-.63733c-.74243,1.0315-1.48413,1.98566-2.22485,2.90479,9.48047,18.39612,9.58081,31.92395,7.25293,41.48968-6.24732,25.67206-32.45239,33.13788-33.81592,55.553-.69409,11.41205,5.35425,21.7121,12.61475,29.96534a6.25177,6.25177,0,0,1-4.08057,10.35888c-1.19824.11835-2.46533.22083-3.78125.30579a108.74207,108.74207,0,0,0,17.78125-.30579,6.25177,6.25177,0,0,0,4.08057-10.35888c-7.2605-8.25324-13.30884-18.55329-12.61475-29.96534C407.00562,278.433,433.21069,270.96716,439.458,245.2951Z"/><path fill="#ffbd86" d="M385.92518,317.90213a57.51984,57.51984,0,0,1-22.00764-10.23494c-14.09079-10.76483-24.85817-29.99066-26.794-47.84059-.97376-8.97714.74877-14.60644,2.52018-16.699.93609-1.10611,4.89222-4.84184,16.51476-6.48853a29.19985,29.19985,0,0,1,4.1348-.30338c3.89047,0,7.26835.86127,11.54466,1.95211a72.21252,72.21252,0,0,0,18.4577,2.85206,50.24258,50.24258,0,0,0,12.47312-1.56372,54.43344,54.43344,0,0,0,15.97622-6.93952,24.25632,24.25632,0,0,1-.5584,7.48214c-1.58561,6.517-5.893,11.28251-12.78973,18.51879-8.61879,9.04331-20.423,21.42837-21.60653,40.88122A53.01251,53.01251,0,0,0,385.92518,317.90213Z"/><path fill="#fed2a4" d="M189.06723,228.98473c-9.37393-11.07623-26.08457-13.44472-30.15447-14.02157-20.25822-2.87131-28.98069,7.26606-44.31512,3.38854-6.519-1.64843-14.75941-5.96292-23.02753-17.45106a6.26174,6.26174,0,0,0-10.57622.63733C70.3207,221.097,70.11942,235.34,72.542,245.29512c6.24734,25.672,32.45232,33.13788,33.81578,55.553.69417,11.41205-5.35407,21.71207-12.6146,29.96535a6.25174,6.25174,0,0,0,4.08047,10.35887c15.507,1.53148,41.40631.80767,63.549-16.10873C193.482,300.53306,206.97039,250.13908,189.06723,228.98473Z"/><path fill="#ffbd86" d="M126.07482,317.90213a53.01251,53.01251,0,0,0,2.13485-18.38339c-1.18348-19.45285-12.98774-31.83791-21.60653-40.88122-6.89676-7.23628-11.20412-12.00176-12.79024-18.5193a24.25339,24.25339,0,0,1-.55789-7.48163,54.413,54.413,0,0,0,15.9752,6.939,50.20332,50.20332,0,0,0,12.47566,1.56423,72.2131,72.2131,0,0,0,18.45466-2.85206c4.27732-1.09084,7.6552-1.95211,11.54618-1.95211a29.248,29.248,0,0,1,4.13378.30287c11.62356,1.6472,15.57969,5.38293,16.51527,6.48853,1.77192,2.0931,3.49445,7.7224,2.52069,16.69954-1.93582,17.84993-12.7032,37.07576-26.794,47.84059A57.51984,57.51984,0,0,1,126.07482,317.90213Z"/><ellipse cx="201.372" cy="40.34" fill="#fee903" rx="12.475" ry="19.727" transform="rotate(-30 201.372 40.34)"/><ellipse cx="161.381" cy="80.331" fill="#fee903" rx="12.475" ry="19.727" transform="rotate(-60 161.38 80.33)"/><ellipse cx="146.743" cy="134.96" fill="#fee903" rx="19.727" ry="12.475"/><ellipse cx="161.381" cy="189.588" fill="#fee903" rx="19.727" ry="12.475" transform="rotate(-30 161.38 189.588)"/><path fill="#fac600" d="M178.46533 179.72418a21.81357 21.81357 0 0 0-32.24707 8.88629 120.77025 120.77025 0 0 0 8.03662 14.56452 21.82749 21.82749 0 0 0 24.21045-23.45081zM135.14478 144.0921a21.82292 21.82292 0 0 0 31.32592-9.13257 21.81076 21.81076 0 0 0-30.90429-9.38415q-.58668 5.93994-.595 12.03772Q134.97144 140.87375 135.14478 144.0921zM167.61841 69.52753a21.7118 21.7118 0 0 0-9.65943-2.87921 120.99609 120.99609 0 0 0-10.39465 17.16949 21.82128 21.82128 0 0 0 30.901 6.37708A21.83125 21.83125 0 0 0 167.61841 69.52753zM190.56787 46.57788a21.83151 21.83151 0 0 0 20.66748 10.847 21.82682 21.82682 0 0 0-5.16919-30.09015 120.8306 120.8306 0 0 0-18.33471 10.33569A21.74563 21.74563 0 0 0 190.56787 46.57788z"/><ellipse cx="350.619" cy="189.588" fill="#fee903" rx="12.475" ry="19.727" transform="rotate(-60 350.62 189.588)"/><ellipse cx="365.257" cy="134.959" fill="#fee903" rx="19.727" ry="12.475"/><ellipse cx="350.619" cy="80.331" fill="#fee903" rx="19.727" ry="12.475" transform="rotate(-30 350.62 80.331)"/><ellipse cx="310.628" cy="40.34" fill="#fee903" rx="19.727" ry="12.475" transform="rotate(-60 310.628 40.34)"/><path fill="#fee903" d="M256,24.5A113.11313,113.11313,0,1,0,369.11316,137.6131,113.1131,113.1131,0,0,0,256,24.5Zm0,191.22607a78.113,78.113,0,1,1,78.11328-78.11279A78.20137,78.20137,0,0,1,256,215.72607Z"/><path fill="#fee903" d="M256,24.5A113.11313,113.11313,0,1,0,369.11316,137.6131,113.1131,113.1131,0,0,0,256,24.5Zm0,191.22607a78.113,78.113,0,1,1,78.11328-78.11279A78.20137,78.20137,0,0,1,256,215.72607Z"/><path fill="#fac600" d="M224.40161 28.97913a27.12272 27.12272 0 0 0 2.24683 20.29333l2.81128 5.18689h39.08056l2.81128-5.18689A27.12215 27.12215 0 0 0 272.438 25.69305a113.74456 113.74456 0 0 0-48.03638 3.28608zM249 59.82965c-2.30786-.206-4.6394-.32965-7-.32965a78.113 78.113 0 1 0 0 156.22607c2.3606 0 4.69214-.12359 7-.32965a78.0962 78.0962 0 0 1 0-155.56677z"/><path fill="#fac600" d="M256,24.5c-2.35156,0-4.68408.08051-7,.22192a113.10767,113.10767,0,0,1,0,225.78241c2.31592.14142,4.64844.22193,7,.22193A113.11313,113.11313,0,1,0,256,24.5Z"/><path fill="#fed2a4" d="M421.98363,502V414.80372a60,60,0,0,0-38.1582-55.88323l-77.81968-30.4156a20,20,0,0,1-12.7194-18.62775v-27.8509h-74.5727v27.8509a20,20,0,0,1-12.7194,18.62775l-77.81968,30.4156a60,60,0,0,0-38.1582,55.88323V502a10,10,0,0,0,10,10H411.98363A10,10,0,0,0,421.98363,502Z"/><path fill="#ffbd86" d="M383.82544 358.92047l-77.81958-30.41559a19.99991 19.99991 0 0 1-12.71948-18.62774V282.02625h-14v27.85089a19.99991 19.99991 0 0 0 12.71948 18.62774l77.81958 30.41559a59.99983 59.99983 0 0 1 38.1582 55.88324V502a10.0001 10.0001 0 0 1-10 10h14a10.0001 10.0001 0 0 0 10-10V414.80371A59.99983 59.99983 0 0 0 383.82544 358.92047zM191.99414 335.50488a19.96438 19.96438 0 0 0 6.3811-4.02215l-70.20068 27.43774a59.9839 59.9839 0 0 0-11.559 6.0459z"/><path fill="#fee903" d="M156.80609 500c-5.56836 0-5.56836 4-11.13672 4s-5.56836-4-11.13672-4c-5.56454 0-5.56454 4-11.12908 4-5.5663 0-5.5663-4-11.1326-4-5.56437 0-5.56437 4-11.12874 4-5.56293 0-5.56293-4-11.12586-4V472c5.56293 0 5.56293 4 11.12586 4 5.56437 0 5.56437-4 11.12874-4 5.5663 0 5.5663 4 11.1326 4 5.56454 0 5.56454-4 11.12908-4 5.56836 0 5.56836 4 11.13672 4s5.56836-4 11.13672-4zM421.98363 500c-5.56836 0-5.56836 4-11.13672 4s-5.56837-4-11.13673-4c-5.56453 0-5.56453 4-11.12907 4-5.5663 0-5.5663-4-11.13261-4-5.56436 0-5.56436 4-11.12873 4-5.56293 0-5.56293-4-11.12586-4V472c5.56293 0 5.56293 4 11.12586 4 5.56437 0 5.56437-4 11.12873-4 5.56631 0 5.56631 4 11.13261 4 5.56454 0 5.56454-4 11.12907-4 5.56836 0 5.56836 4 11.13673 4s5.56836-4 11.13672-4z"/><path fill="#fac600" d="M407.98364,475.53973V502a10.0417,10.0417,0,0,1-.12353,1.49377A8.25192,8.25192,0,0,0,410.84692,504c5.56836,0,5.56836-4,11.13672-4V472c-5.56836,0-5.56836,4-11.13672,4A8.342,8.342,0,0,1,407.98364,475.53973Z"/><path fill="#fee903" d="M170.76636,355.98389a78.9759,78.9759,0,0,0,19.856,34.40185,22.03347,22.03347,0,0,1,6.34229,15.4624v8.45166a52.38892,52.38892,0,1,0,104.77783,0v-.666a22.21675,22.21675,0,0,1,10.77881-18.9419,70.48715,70.48715,0,0,0,21.78613-20.91748c1.75367-2.623,5.83374-8.74041,8.72-27.86621l.39014-2.78106-20.239-7.9104-.26734,2.82916c-2.05346,16.574-4.92407,22.35589-6.06176,24.05762a49.62824,49.62824,0,0,1-15.35108,14.71435,43.07838,43.07838,0,0,0-20.75586,36.81592v.666a31.38892,31.38892,0,1,1-62.77783,0v-8.45166a42.92116,42.92116,0,0,0-12.31836-30.13525,57.14509,57.14509,0,0,1-14.60645-25.20654c-.38891-1.43976-.92846-6.15515-1.33813-15.63355l-20.55115,8.03235A79.914,79.914,0,0,0,170.76636,355.98389Z"/><path fill="#fac600" d="M322.91113 338.0459c-.10351.83435-.20923 1.634-.3164 2.41455l20.05273 7.83758c.12842-.77587.25562-1.56646.37988-2.38983l.39014-2.78106-9.23242-3.60846-11.00659-4.30194zM184.03979 343.50635a57.14509 57.14509 0 0 0 14.60645 25.20654 42.92116 42.92116 0 0 1 12.31836 30.13525v8.45166a31.36206 31.36206 0 0 0 12.98486 25.40461 31.21213 31.21213 0 0 1-5.98486-18.40461v-8.45166a42.92116 42.92116 0 0 0-12.31836-30.13525 57.14509 57.14509 0 0 1-14.60645-25.20654c-.38891-1.43976-.92846-6.15515-1.33813-15.63355l-6.4364 2.51563A43.13639 43.13639 0 0 0 184.03979 343.50635z"/><path fill="#fac600" d="M335.83154,340.16223c-2.87207,18.13556-6.80957,24.04773-8.52417,26.61218a70.48715,70.48715,0,0,1-21.78613,20.91748,22.21675,22.21675,0,0,0-10.77881,18.9419v.666A52.36119,52.36119,0,0,1,208.99194,447.662a52.36768,52.36768,0,0,0,92.75049-33.36219v-.666a22.21675,22.21675,0,0,1,10.77881-18.9419,70.48715,70.48715,0,0,0,21.78613-20.91748c1.75367-2.623,5.83374-8.74041,8.72-27.86621l.39014-2.78106Z"/><path fill="#f4ba00" d="M335.83154,340.16223c-.28979,1.8302-.59082,3.53009-.89892,5.12042l7.71484,3.01538c.12842-.77587.25562-1.56646.37988-2.38983l.39014-2.78106Z"/><path fill="#fac600" d="M315.90625,187.67285a78.08314,78.08314,0,0,1-137.1676-61.54895,67.90712,67.90712,0,0,0-12.32044,48.264l4.8053,38.09869A113.65107,113.65107,0,0,0,197.59961,234.5H310Z"/><path fill="#fee903" d="M324,234.5H188l-7.5817-60.11207a67.9738,67.9738,0,0,1,40.75536-71.023L256,88.5l34.82634,14.8649a67.9738,67.9738,0,0,1,40.75536,71.023Z"/><path fill="#ffbd86" d="M234.3664,283.6347a115.70918,115.70918,0,0,0-7.34243,71.21683c3.9722,18.02326,12.27931,39.03424,30.25879,47.16195,23.53253,10.638,39.905-7.06284,60.04986.60049,15.77143,5.99964,25.12451,21.46476,30.83014,35.86786a2.995,2.995,0,0,0,5.49536.15485q2.57177-5.48464,5.14353-10.96927a7.00005,7.00005,0,0,1,7.54962-3.92249q6.5911,1.15851,13.18216,2.317a2.99551,2.99551,0,0,0,3.50467-3.2655,66.9863,66.9863,0,0,0-6.79788-23.00244c-9.23732-18.18951-26.90352-30.951-46.47651-35.96737-23.77736-6.0939-55.61517,5.72931-55.5088-30.83591.04275-14.698,3.88538-29.92815,8.24879-43.871Z"/><path fill="#fac600" d="M334.30737,373.77441a34.08055,34.08055,0,0,0,3.76-7.29016,77.13254,77.13254,0,0,0-8.30371-2.65765A73.90174,73.90174,0,0,0,316.96,361.93335q-.05786.09109-.11059.17017a49.62824,49.62824,0,0,1-15.35108,14.71435,43.25327,43.25327,0,0,0-19.83008,27.98c8.386-1.3482,16.229-4.11957,24.37354-4.16711a23.10645,23.10645,0,0,1,6.47949-5.93885A70.48715,70.48715,0,0,0,334.30737,373.77441Z"/><path fill="#f4ba00" d="M338.06738,366.48419a77.13221,77.13221,0,0,0-8.30371-2.65759c-.1958-.05023-.39868-.08478-.5957-.13257a32.48892,32.48892,0,0,1-1.8606,3.08038,70.48715,70.48715,0,0,1-21.78613,20.91748,22.4222,22.4222,0,0,0-10.262,14.259,55.15406,55.15406,0,0,1,10.78247-1.32013l.00024-.00037c.404-.5473.83814-1.07483,1.29395-1.58716.063-.071.12744-.14032.1914-.21057.45142-.49481.91993-.97668,1.41822-1.43463l.012-.01166c.48975-.44928,1.00684-.87469,1.54-1.2854.11719-.09033.23559-.17877.35473-.26715.53833-.39868,1.08985-.78473,1.66895-1.14191a70.48715,70.48715,0,0,0,21.78613-20.91748,34.07305,34.07305,0,0,0,3.75733-7.28363Z"/><path fill="#ffbd86" d="M239.39592,265.39165a115.70908,115.70908,0,0,0-7.34243,71.21684c3.97219,18.02326,12.27931,39.03424,30.25878,47.16195,23.53253,10.638,39.905-7.06284,60.04986.60049,15.77143,5.99964,25.12451,21.46475,30.83014,35.86786a2.995,2.995,0,0,0,5.49536.15485q2.57176-5.48466,5.14353-10.96927a7,7,0,0,1,7.54962-3.92249q6.59111,1.15851,13.18216,2.317a2.99551,2.99551,0,0,0,3.50467-3.2655,66.98624,66.98624,0,0,0-6.79788-23.00244c-9.23732-18.18951-26.90352-30.951-46.47651-35.96738-23.77736-6.0939-55.61517,5.72931-55.5088-30.8359.04275-14.698,3.88538-29.92815,8.24879-43.871Z"/><path fill="#fac600" d="M290.82642,103.36493,256,88.5l-7,2.98779,27.82642,11.87714a67.974,67.974,0,0,1,40.75537,71.023L310,234.5h14l7.58179-60.11206A67.974,67.974,0,0,0,290.82642,103.36493Z"/><path fill="#ffbd86" fill-rule="evenodd" d="M189.06714,228.98474a36.03673,36.03673,0,0,0-12.906-9.29278,40.16293,40.16293,0,0,0-2.27881,13.29681c-.00012,6.59668-.00036,9.76062-.00073,27.29248a65.63867,65.63867,0,0,0,11.2207,36.81732C198.76587,272.61761,201.53369,243.71515,189.06714,228.98474Z"/><path fill="#fed2a4" fill-rule="evenodd" d="M256.00067,326.35688h-1.70358a66.14747,66.14747,0,0,1-66.41549-66.0756c.00039-17.53191.00059-20.69581.0007-27.29249a40.21034,40.21034,0,0,1,16.83557-32.71794l.49285-.352a48.27531,48.27531,0,0,1,34.50194-8.56027L256,193.55175l16.28734-2.19321a48.27426,48.27426,0,0,1,34.50159,8.56l.49291.35208a40.20931,40.20931,0,0,1,16.83586,32.71713c.00011,5.86606.0003,8.56361.00065,25.2461A68.121,68.121,0,0,1,256.00067,326.35688Z"/><path fill="#ffbd86" fill-rule="evenodd" d="M187.88232,246.98877a40.21071,40.21071,0,0,1,16.83545-32.7179l.49292-.352a48.27545,48.27545,0,0,1,34.502-8.5603L256,207.55176l16.28735-2.19324a48.275,48.275,0,0,1,34.50171,8.56006q.24609.176.49268.35205a40.20917,40.20917,0,0,1,16.83594,32.71716c0,3.61719,0,6.03394.00024,11.26367l.00049-.01757c-.00049-16.6825-.00073-19.38013-.00073-25.2461a40.20917,40.20917,0,0,0-16.83594-32.71716q-.24647-.17615-.49268-.35205a48.275,48.275,0,0,0-34.50171-8.56006L256,193.55176l-16.28735-2.19324a48.27545,48.27545,0,0,0-34.502,8.5603l-.49292.352a40.21071,40.21071,0,0,0-16.83545,32.7179c0,6.59668-.00048,9.76062-.00073,27.29248l.00025.01282C187.88208,254.08862,187.88232,251.25366,187.88232,246.98877Z"/><path fill="#ffbd86" fill-rule="evenodd" d="M324.11768,232.98779a40.209,40.209,0,0,0-16.83594-32.71716l-.49268-.35205a48.25588,48.25588,0,0,0-13.72754-6.8053l.22022.15735a40.209,40.209,0,0,1,16.83594,32.71716c0,5.866.00024,8.5636.00073,25.2461a68.1211,68.1211,0,0,1-68.11768,68.123h-1.70361a66.8364,66.8364,0,0,1-22.62769-3.91876,66.408,66.408,0,0,0,36.62769,10.91876h1.70361a68.1211,68.1211,0,0,0,68.11768-68.123C324.11792,241.55139,324.11768,238.85382,324.11768,232.98779Z"/><path fill="#fac600" d="M271.439,54.45935H226.561a14.51567,14.51567,0,0,0-14.51563,14.51581v.00006A14.491,14.491,0,0,0,212.554,72.732a77.92068,77.92068,0,0,1,72.90991-7.44409A14.50839,14.50839,0,0,0,271.439,54.45935Z"/><path fill="#fee903" d="M233.5611,54.45933H278.4389a14.51583,14.51583,0,0,1,14.51583,14.51583v0A14.51584,14.51584,0,0,1,278.4389,83.491H233.5611A14.51583,14.51583,0,0,1,219.04526,68.9752v0A14.51584,14.51584,0,0,1,233.5611,54.45933Z"/><path fill="#fac600" d="M278.439,54.45935h-1.59863a14.42666,14.42666,0,0,1,2.11426,7.51581v.00006A14.51567,14.51567,0,0,1,264.439,76.491H221.15967a14.49288,14.49288,0,0,0,12.40137,7H278.439a14.51567,14.51567,0,0,0,14.51563-14.51581v-.00006A14.51567,14.51567,0,0,0,278.439,54.45935Z"/><path fill="#fee903" d="M224.884,83.491H287.116A14.51583,14.51583,0,0,1,301.6318,98.00687v0A14.51584,14.51584,0,0,1,287.116,112.52273H224.884A14.51583,14.51583,0,0,1,210.3682,98.0069v0A14.51583,14.51583,0,0,1,224.884,83.491Z"/><path fill="#fac600" d="M287.116,83.491h-1.59864a14.42683,14.42683,0,0,1,2.11451,7.51581v.00006A14.51589,14.51589,0,0,1,273.116,105.52271h-60.6333a14.49256,14.49256,0,0,0,12.40136,7H287.116A14.51589,14.51589,0,0,0,301.63184,98.0069v-.00006A14.51588,14.51588,0,0,0,287.116,83.491Z"/><path fill="#fee903" d="M275.54031,54.45933H236.45969l-2.81131-5.18689a27.1318,27.1318,0,0,1,0-25.85743h0a27.13151,27.13151,0,0,1,7.52267-8.738L256,3.5l14.829,11.177a27.13151,27.13151,0,0,1,7.52267,8.738h0a27.1318,27.1318,0,0,1,0,25.85743Z"/><path fill="#fac600" d="M278.35156,23.415a27.132,27.132,0,0,0-7.52246-8.738L256,3.5l-2.35645,1.77612,3.18555,2.40094a27.13235,27.13235,0,0,1,7.52246,34.5954h0a9.90825,9.90825,0,0,1-8.711,5.18688H232.75977c.2749.61176.56616,1.21814.88867,1.81311l2.81128,5.18689h39.08056l2.81128-5.18689A27.13129,27.13129,0,0,0,278.35156,23.415Z"/><circle cx="256" cy="32.966" r="7.625" fill="#fd4755"/><path fill="#fb2b3a" d="M256,25.34076c-.0437,0-.08594.0058-.12939.00653a7.617,7.617,0,0,1-5.18287,13.08282A7.6234,7.6234,0,1,0,256,25.34076Z"/><circle cx="214" cy="164.006" r="7" fill="#0067c5"/><circle cx="298" cy="164.006" r="7" fill="#0067c5"/><path fill="#0055a3" d="M298.334 157.02283A6.9986 6.9986 0 0 1 292.95459 168.5c-.11255 0-.22241-.0116-.334-.01685a6.9971 6.9971 0 1 0 5.71337-11.46032zM214.334 157.02283A6.9986 6.9986 0 0 1 208.95459 168.5c-.11255 0-.22241-.0116-.334-.01685a6.9971 6.9971 0 1 0 5.71337-11.46032z"/><path fill="#ffbd86" d="M293.05957 245.26953q-.26367 0-.53027-.00635a22.79723 22.79723 0 0 1-12.06739-3.80371 3.49979 3.49979 0 1 1 3.86914-5.833 15.80655 15.80655 0 0 0 8.36231 2.63868 16.05028 16.05028 0 0 0 9.10937-2.63965 3.50007 3.50007 0 0 1 3.86719 5.835A23.11346 23.11346 0 0 1 293.05957 245.26953zM218.92676 245.26953c-.17578 0-.352-.00195-.53028-.00635a22.79259 22.79259 0 0 1-12.06738-3.80371 3.50007 3.50007 0 0 1 3.87012-5.833 15.75419 15.75419 0 0 0 17.4707-.001 3.50007 3.50007 0 1 1 3.86719 5.835A23.11052 23.11052 0 0 1 218.92676 245.26953z"/><ellipse cx="256" cy="151.613" fill="#fd4755" rx="11.813" ry="22.479"/><path fill="#fb2b3a" d="M256,129.134l-.00635.00458a27.27889,27.27889,0,0,1-6.9873,37.949A27.50593,27.50593,0,0,0,256,174.09222a27.29438,27.29438,0,0,0,0-44.95819Z"/><path fill="#ffbd86" d="M264.01318,324.77319l21.05127,13.93042a8.78392,8.78392,0,0,0,9.957-.18048l2.978-2.12994a8.7867,8.7867,0,0,0,2.855-10.852,20.01419,20.01419,0,0,1-6.01611-7.96381q-7.30444-9.20865-14.60889-18.41723c-7.127-4.976-16.87353-3.15064-21.5122,3.5C253.802,309.70691,256.01465,320.17255,264.01318,324.77319Z"/><path fill="#f9f7f8" d="M280.71269,286.91685q9.85342,12.42192,19.70687,24.84384a8.7838,8.7838,0,0,1-1.93657,12.38919l-2.97825,2.12993a8.78375,8.78375,0,0,1-9.957.18052l-21.05141-13.93045c-7.9983-4.60067-10.211-15.06627-5.29583-22.113A15.55633,15.55633,0,0,1,280.71269,286.91685Z"/><path fill="#e5e1e5" d="M300.41943,311.76074q-9.85326-12.42187-19.70678-24.84387a15.77748,15.77748,0,0,0-16.03955-1.186,15.711,15.711,0,0,1,2.03955,1.186q9.85363,12.42188,19.70678,24.84387a8.7837,8.7837,0,0,1-1.93652,12.38916l-1.16626.834,2.2312,1.47644a8.78362,8.78362,0,0,0,9.957-.18054l2.978-2.12989A8.7837,8.7837,0,0,0,300.41943,311.76074Z"/><path fill="#ffbd86" d="M200.05469,350.134c3.03613,1.592,9.75073-5.06872,23.05566-18.45538,10.0437-10.10523,17.77979-18.90045,22.8855-24.93536q-7.96766-8.55451-15.93579-17.10889a74.31964,74.31964,0,0,0-11.34644,9.07507v11.16773a19.99991,19.99991,0,0,1-12.71948,18.62774l-5.92236,2.3147C197.37109,340.40332,197.12451,348.59766,200.05469,350.134Z"/><path fill="#f9f7f8" d="M232.6936,275.63432a70.17412,70.17412,0,0,0-22.46319,23.28c-8.74625,15.00827-12.26084,34.74555-7.54233,37.21961,3.03638,1.59207,9.75085-5.06873,23.05588-18.45535,10.04364-10.10523,17.77966-18.90049,22.8854-24.9354Q240.66148,284.18875,232.6936,275.63432Z"/><path fill="#e5e1e5" d="M232.6936,275.63428c-.09594.06274-.199.13305-.29638.19726q4.61608,4.95594,9.23217,9.91162c-5.10571,6.03492-12.84179,14.8302-22.88549,24.93543-8.42115,8.47278-14.196,14.24121-18.07544,16.93811-.3208,4.4187.301,7.61621,2.01953,8.51733,3.03662,1.592,9.751-5.06884,23.05591-18.45544,10.0437-10.10523,17.77978-18.90051,22.88549-24.93543Q240.66138,284.18884,232.6936,275.63428Z"/><path fill="#fed2a4" d="M234.3664,269.6347a115.70918,115.70918,0,0,0-7.34243,71.21683c3.9722,18.02326,12.27931,39.03424,30.25879,47.16195,23.53253,10.638,39.905-7.06284,60.04986.60049,15.77143,5.99964,25.12451,21.46476,30.83014,35.86786a2.995,2.995,0,0,0,5.49536.15485q2.57177-5.48464,5.14353-10.96927a7.00005,7.00005,0,0,1,7.54962-3.92249q6.5911,1.15851,13.18216,2.317a2.99551,2.99551,0,0,0,3.50467-3.2655,66.9863,66.9863,0,0,0-6.79788-23.00244c-9.23732-18.18951-26.90352-30.951-46.47651-35.96737-23.77736-6.0939-55.61517,5.72931-55.5088-30.83591.04275-14.698,3.88538-29.92815,8.24879-43.871Z"/><circle cx="248.494" cy="487.59" r="20.91" fill="#fee903"/><path fill="#fac600" d="M250.15186,466.76428A20.88615,20.88615,0,0,1,234.49438,501.5c-.55957,0-1.10888-.04053-1.65747-.08368a20.89556,20.89556,0,1,0,17.315-34.652Z"/><path d="M301.78016,235.60986a16.0502,16.0502,0,0,1-9.10937,2.63965,15.80662,15.80662,0,0,1-8.36231-2.63867,3.49979,3.49979,0,1,0-3.86914,5.833,22.79722,22.79722,0,0,0,12.06738,3.80371q.26661.00659.53028.00635a23.11348,23.11348,0,0,0,12.61035-3.80909,3.50007,3.50007,0,0,0-3.86719-5.835ZM423.75672,276.1416c7.40918-7.77344,15.80762-16.584,19.082-30.03125,3.36426-13.84961.41114-29.41455-8.78125-46.26562a9.76554,9.76554,0,0,0-16.49121-1.00489c-6.292,8.74219-13.373,14.15967-21.04687,16.10157-6.74512,1.707-12.1582.32519-18.42676-1.27491-6.85449-1.749-14.62207-3.73144-25.5166-2.1875-2.71045.38422-5.20166.87836-7.53125,1.442q2.74365-3.2276,5.23535-6.6275a25.20005,25.20005,0,0,0,4.93359.50244,25.47057,25.47057,0,0,0,14.45508-4.48291,3.501,3.501,0,0,0,1.49707-2.59522,25.43784,25.43784,0,0,0-6.65918-19.24865,116.10764,116.10764,0,0,0,7.42285-30.4549A25.29711,25.29711,0,0,0,388.119,136.4458a3.496,3.496,0,0,0,.001-3.001,25.19158,25.19158,0,0,0-16.94995-13.76837,117.102,117.102,0,0,0-8.31445-28.63617,25.44432,25.44432,0,0,0,8.3103-20.86987,3.49724,3.49724,0,0,0-1.499-2.59521A25.32673,25.32673,0,0,0,346.85169,64.536c-.17236-.21411-.33325-.43628-.50708-.64929a116.8388,116.8388,0,0,0-20.13916-19.33923,25.22985,25.22985,0,0,0-2.85791-23.29163,3.50036,3.50036,0,0,0-2.59765-1.50049,25.21882,25.21882,0,0,0-21.81812,9.42914,115.36005,115.36005,0,0,0-16.40234-5.12732c-.34424-.78491-.71021-1.56342-1.12329-2.32574A30.42927,30.42927,0,0,0,272.913,11.8667L258.08387.68945a3.49811,3.49811,0,0,0-4.21289,0L239.04188,11.8667a30.42912,30.42912,0,0,0-8.49316,9.86475c-.41309.76232-.77881,1.54083-1.12305,2.3258a115.36357,115.36357,0,0,0-16.4021,5.1272,25.20781,25.20781,0,0,0-21.8186-9.42908,3.5013,3.5013,0,0,0-2.59815,1.50049,25.231,25.231,0,0,0-2.85718,23.29163,116.8449,116.8449,0,0,0-20.1394,19.33923c-.17383.213-.33472.435-.507.64911a25.32125,25.32125,0,0,0-22.8158,3.03937,3.49874,3.49874,0,0,0-1.49853,2.59472,25.4419,25.4419,0,0,0,8.31055,20.87061,117.09918,117.09918,0,0,0-8.31421,28.63568,25.18935,25.18935,0,0,0-16.95044,13.76861,3.50117,3.50117,0,0,0,.001,3.001,25.29808,25.29808,0,0,0,16.18995,13.5686,116.10905,116.10905,0,0,0,7.4226,30.45453,25.43818,25.43818,0,0,0-6.65942,19.24884A3.49806,3.49806,0,0,0,142.286,202.313a25.28007,25.28007,0,0,0,19.38879,3.98034q2.48841,3.39992,5.23572,6.628c-2.32983-.56379-4.82129-1.058-7.53222-1.44233-10.89356-1.543-18.66309.439-25.51563,2.1875-6.26953,1.6001-11.68311,2.98194-18.42676,1.27491-7.67431-1.9419-14.75586-7.35938-21.04736-16.10108a9.76581,9.76581,0,0,0-16.49365,1.00781c-9.18994,16.84717-12.14356,32.41163-8.77832,46.26416,3.27392,13.44532,11.67187,22.25538,19.08154,30.02881,7.52441,7.894,14.02295,14.71143,14.64551,24.90479.52881,8.7417-3.42578,17.97265-11.75635,27.43994a9.75112,9.75112,0,0,0,6.36621,16.15137c3.499.34521,7.31055.56494,11.34814.56494,16.48633,0,36.72413-3.66113,54.67139-17.377,11.79077-9.01355,21.64978-21.69513,28.32837-36.25336a69.41361,69.41361,0,0,0,10.60083,15.36944c-3.04248,7.47718-4.971,15.25287-5.269,21.24152L188.403,331.595l-.00073.00018-.24145.09449L126.87342,355.644a63.10854,63.10854,0,0,0-40.376,59.14014v57.16626c-.00013.0116-.00342.02234-.00342.03394s.00329.02233.00342.03393v27.93213c-.00013.0116-.00342.02234-.00342.03394s.00329.02233.00342.03393v8.46607a3.5,3.5,0,0,0,7,0v-3.66987l.01562.01117a12.21251,12.21251,0,0,0,15.21387.00049,5.29439,5.29439,0,0,1,7.04541.00049,12.21777,12.21777,0,0,0,15.21631-.00049,5.29687,5.29687,0,0,1,7.04785.001,12.2267,12.2267,0,0,0,15.2207,0l.02637-.0188v3.676a3.5,3.5,0,0,0,7,0V488.20081c8.66308,13.07592,23.791,21.886,41.24121,23.58776q.17358.01685.34375.01709a3.50023,3.50023,0,0,0,.33594-6.98388c-17.99268-1.75489-33.11084-11.9834-39.45557-26.69434-5.93408-13.75879-2.46289-27.49267,1.49365-36.59131a3.49993,3.49993,0,1,0-6.41894-2.792c-2.81726,6.47821-6.43506,17.78174-4.75745,30.28626a13.3836,13.3836,0,0,0-3.89294,2.1112,5.30182,5.30182,0,0,1-7.05274,0,12.22077,12.22077,0,0,0-15.21777.001,5.29436,5.29436,0,0,1-7.04541-.00049,12.2178,12.2178,0,0,0-15.21631.00049,5.28932,5.28932,0,0,1-7.041,0,13.2128,13.2128,0,0,0-4.10253-2.16785V414.78418a56.15054,56.15054,0,0,1,35.92382-52.62012l36.58912-14.30121a57.53087,57.53087,0,0,0,1.35766,9.01215,82.48147,82.48147,0,0,0,20.728,35.94727,18.52136,18.52136,0,0,1,5.34131,13.0122v8.44971a55.97825,55.97825,0,0,0,40.47509,53.71088,24.41555,24.41555,0,1,0,29.57618.35687,55.987,55.987,0,0,0,41.729-54.06775v-.66992a18.73319,18.73319,0,0,1,9.11231-15.9585c2.00048-1.2301,3.93676-2.548,5.77832-3.932a39.40993,39.40993,0,0,1,8.22192,5.91663,214.06219,214.06219,0,0,1-10.21216,45.04468,215.49408,215.49408,0,0,1-33.32129,61.66015,3.50025,3.50025,0,0,0,5.541,4.27833,222.46453,222.46453,0,0,0,34.39844-63.6587,220.83081,220.83081,0,0,0,9.7539-40.42035,82.74549,82.74549,0,0,1,10.39649,19.21088,6.47921,6.47921,0,0,0,5.8291,4.09131c.06738.002.13476.00293.20117.00293a6.50066,6.50066,0,0,0,5.88769-3.74219l5.14356-10.96972a3.50389,3.50389,0,0,1,3.77539-1.96094l13.18164,2.31689A6.49565,6.49565,0,0,0,386.494,408.397a70.2577,70.2577,0,0,0-7.15528-24.20361,72.73964,72.73964,0,0,0-33.78662-32.34393q.35193-1.89789.67139-3.87891l36.31055,14.19354a56.14983,56.14983,0,0,1,35.92382,52.62012v54.1897a13.22429,13.22429,0,0,0-4.10742,2.16772,5.3018,5.3018,0,0,1-7.05273,0,12.22077,12.22077,0,0,0-15.21777.001,5.295,5.295,0,0,1-7.0459-.00049,12.2171,12.2171,0,0,0-15.21582.00049,5.28932,5.28932,0,0,1-7.041,0,13.3647,13.3647,0,0,0-3.88867-2.11145c1.67749-12.50427-1.93994-23.80829-4.75684-30.2865a3.50018,3.50018,0,0,0-6.41992,2.791c3.957,9.09961,7.42774,22.834,1.49414,36.5918-6.34472,14.71094-21.46289,24.93994-39.45605,26.69434a3.50022,3.50022,0,0,0,.33593,6.98388c.11329,0,.22852-.00586.34375-.01709,17.44288-1.701,32.56592-10.5039,41.23047-23.57025v20.26606a3.5,3.5,0,0,0,7,0v-3.68055l.03125.02234a12.212,12.212,0,0,0,15.21289,0,5.295,5.295,0,0,1,7.0459.00049,12.21707,12.21707,0,0,0,15.21582-.00049,5.29687,5.29687,0,0,1,7.04785.001,12.22671,12.22671,0,0,0,15.22071,0l.02343-.01673v3.674a3.5,3.5,0,0,0,7,0v-8.47095c0-.01.00293-.01911.00293-.02905s-.00293-.01911-.00293-.02906V472.01343c0-.01.00293-.01911.00293-.02905s-.00293-.01911-.00293-.02906V414.78418a63.1074,63.1074,0,0,0-40.376-59.13965L307.244,325.21777a15.94979,15.94979,0,0,1-3.4043-1.82611,12.27091,12.27091,0,0,0,1.65039-4.51764,12.148,12.148,0,0,0-1.32788-7.6936,71.58387,71.58387,0,0,0,15.61206-20.43616c6.668,14.89887,16.66065,27.87244,28.708,37.08094,17.94824,13.71679,38.18359,17.37744,54.66992,17.377,4.03613,0,7.85059-.21973,11.34766-.56445a9.752,9.752,0,0,0,6.36523-16.15528c-8.32812-9.46387-12.28223-18.69482-11.75488-27.43457C409.73329,290.85254,416.23231,284.03516,423.75672,276.1416ZM380.99793,134.94238a18.30461,18.30461,0,0,1-8.51855,7.46936c.06445-1.60064.1084-3.2052.1084-4.8175q0-5.16568-.46338-10.28906A18.21178,18.21178,0,0,1,380.99793,134.94238Zm-241.52185,7.46967a18.29754,18.29754,0,0,1-8.51867-7.46967,18.21017,18.21017,0,0,1,8.87353-7.63733q-.45592,5.11917-.46338,10.28919C139.36756,139.20667,139.41163,140.81128,139.47608,142.41205Zm-45.963,334.41363a12.21251,12.21251,0,0,0,15.21387.00049,5.29439,5.29439,0,0,1,7.04541.00049,12.21777,12.21777,0,0,0,15.21631-.00049,5.29687,5.29687,0,0,1,7.04785.001,12.2267,12.2267,0,0,0,15.2207,0l.02637-.0188V496.973a13.21326,13.21326,0,0,0-4.11035,2.16858,5.30182,5.30182,0,0,1-7.05274,0,12.22077,12.22077,0,0,0-15.21777.001,5.29436,5.29436,0,0,1-7.04541-.00049,12.2178,12.2178,0,0,0-15.21631.00049,5.28932,5.28932,0,0,1-7.041,0,13.2128,13.2128,0,0,0-4.10253-2.16785V476.81451Zm324.94482,20.1482a13.22429,13.22429,0,0,0-4.10742,2.16772,5.3018,5.3018,0,0,1-7.05273,0,12.22077,12.22077,0,0,0-15.21777.001,5.295,5.295,0,0,1-7.0459-.00049,12.2171,12.2171,0,0,0-15.21582.00049,5.28932,5.28932,0,0,1-7.041,0,13.18375,13.18375,0,0,0-4.11719-2.17194V476.80383l.03125.02234a12.212,12.212,0,0,0,15.21289,0,5.295,5.295,0,0,1,7.0459.00049,12.21707,12.21707,0,0,0,15.21582-.00049,5.29687,5.29687,0,0,1,7.04785.001,12.22671,12.22671,0,0,0,15.22071,0l.02343-.01673Zm-63.74633-297.202a115.051,115.051,0,0,0,6.6123-11.99225,18.41928,18.41928,0,0,1,2.9231,9.67444A18.47044,18.47044,0,0,1,354.71156,199.77191ZM364.247,72.43408a18.44279,18.44279,0,0,1-4.55933,11.877A116.18917,116.18917,0,0,0,351.338,70.51215,18.34194,18.34194,0,0,1,364.247,72.43408ZM318.48719,26.67285A18.24288,18.24288,0,0,1,320.2245,40.313a117.20433,117.20433,0,0,0-14.5625-8.18872A18.2266,18.2266,0,0,1,318.48719,26.67285ZM281.40614,50.9248a30.52989,30.52989,0,0,0,3.36816-19.08911,109.58981,109.58981,0,0,1,80.81348,105.75855q0,4.71643-.39307,9.3598l-.00342.04645a109.17176,109.17176,0,0,1-7.83471,32.45679,3.45221,3.45221,0,0,0-.40479.99432A108.18022,108.18022,0,0,1,346.20741,199.934a3.45727,3.45727,0,0,0-.55494.78485,110.04339,110.04339,0,0,1-16.18432,18.20081l5.562-44.10761a71.74217,71.74217,0,0,0,.07813-17.25671,81.55931,81.55931,0,0,0-38.84058-90.89923,18.03324,18.03324,0,0,0-15.00586-15.465Zm10.65674,29.76355a18.06529,18.06529,0,0,0,3.51171-6.30194,74.57412,74.57412,0,0,1,35.01319,63.20783c0,.62561-.01416,1.25043-.02979,1.87512a71.28563,71.28563,0,0,0-27.36084-33.448,17.9542,17.9542,0,0,0-11.13427-25.333ZM208.7577,106.02142a71.28772,71.28772,0,0,0-27.36035,33.4455c-.01563-.6239-.02979-1.24786-.02979-1.87268a74.574,74.574,0,0,1,35.01319-63.20783,18.06394,18.06394,0,0,0,3.51147,6.30188,17.95425,17.95425,0,0,0-11.13452,25.33313Zm16.10352-19.04583h62.23242a11.01587,11.01587,0,0,1,0,22.03173H224.86122a11.01587,11.01587,0,0,1,0-22.03173ZM236.703,25.06738a23.47293,23.47293,0,0,1,6.55176-7.61084l12.72266-9.58935,12.72265,9.58935a23.63276,23.63276,0,0,1,6.55176,30.13233l-1.81836,3.355h-34.9126l-1.81787-3.355A23.55277,23.55277,0,0,1,236.703,25.06738Zm-.27051,32.87647.00733.00049.0039-.00049H278.4159a11.01587,11.01587,0,1,1,0,22.03174H233.53846a11.01587,11.01587,0,0,1,0-22.03174Zm-42.96484-31.271a18.22976,18.22976,0,0,1,12.82471,5.45178,117.23164,117.23164,0,0,0-14.562,8.18854A18.2452,18.2452,0,0,1,193.46766,26.67285ZM147.70741,72.43408A18.33284,18.33284,0,0,1,160.617,70.512a116.21339,116.21339,0,0,0-8.34973,13.79932A18.442,18.442,0,0,1,147.70741,72.43408Zm.00048,125.02a18.42032,18.42032,0,0,1,2.92334-9.6748,115.054,115.054,0,0,0,6.61255,11.99261A18.47569,18.47569,0,0,1,147.70789,197.4541Zm18.59449,3.26441a3.45253,3.45253,0,0,0-.55457-.78412,108.175,108.175,0,0,1-10.74341-19.48047,3.45276,3.45276,0,0,0-.40637-.99823,109.17785,109.17785,0,0,1-7.83435-32.459l-.00256-.036q-.38928-4.6441-.39356-9.36639A109.58894,109.58894,0,0,1,227.1808,31.83551a30.53182,30.53182,0,0,0,3.36792,19.08881l.14453.26666a18.03346,18.03346,0,0,0-15.00562,15.46454,81.56365,81.56365,0,0,0-38.84131,90.89941,71.73711,71.73711,0,0,0,.07837,17.25757l5.56214,44.10742A110.03734,110.03734,0,0,1,166.30238,200.71851Zm-7.07984,121.54516C138.69178,337.95361,114.67372,339.30518,98.14,337.6709a2.75167,2.75167,0,0,1-1.79492-4.56445c9.59278-10.90088,14.12988-21.83008,13.48584-32.48536-.77881-12.74755-8.80469-21.167-16.56592-29.30957-7.13671-7.48681-14.51611-15.229-17.34668-26.85351-2.94091-12.106-.20849-25.98682,8.12012-41.25391a2.76533,2.76533,0,0,1,4.668-.27539c7.28125,10.1167,15.69678,16.44141,25.01221,18.79883,8.46728,2.14209,14.98.48047,21.87451-1.27832,6.52881-1.66651,13.27978-3.38818,22.80322-2.03955,9.21485,1.30658,15.74011,3.82745,20.34961,6.55353,1.62878,1.43615,3.31091,2.82623,5.03027,4.18249l.58106,4.6073v26.51117a69.52339,69.52339,0,0,0,3.64746,22.25342C181.91224,298.61719,171.73109,312.70105,159.22254,322.26367Zm38.6792,13.1341a6.71844,6.71844,0,0,0,3.12891,3.81024,5.45527,5.45527,0,0,0,2.59863.6582c4.11939,0,9.27442-4.49164,17.73609-12.8844a113.95877,113.95877,0,0,0,2.218,14.60755c5.689,25.813,16.53467,42.50048,32.23535,49.59814,9.4292,4.26215,17.87769,4.31232,25.57447,3.17139a46.247,46.247,0,0,0-4.17554,19.25537v.66992a27.89014,27.89014,0,1,1-55.78027,0v-8.44971a46.44111,46.44111,0,0,0-13.30811-32.5874,53.596,53.596,0,0,1-13.7334-23.66846c-.23266-.85791-.7041-4.42028-1.10424-12.3789Zm6.1272-5.37909c-.02466-4.57758,1.53125-13.06568,5.53979-22.15973a3.46443,3.46443,0,0,0,.22193-.50153,71.64755,71.64755,0,0,1,3.44067-6.70068,63.7625,63.7625,0,0,1,11.65283-14.52588,120.55371,120.55371,0,0,0-3.959,31.39148c-6.29736,6.329-13.624,13.61859-16.61719,15.0802a8.02465,8.02465,0,0,1-.25317-1.73541A3.44886,3.44886,0,0,0,204.02894,330.01868Zm61.85278,157.556A17.40991,17.40991,0,1,1,248.47206,470.165,17.42922,17.42922,0,0,1,265.88172,487.57471Zm44.7793-95.87989a25.68511,25.68511,0,0,0-12.44336,21.91944v.66992a48.89013,48.89013,0,1,1-97.78027,0v-8.44971a25.47731,25.47731,0,0,0-7.33448-17.90381,75.47847,75.47847,0,0,1-18.978-32.88378,59.96975,59.96975,0,0,1-1.31739-9.834l13.61866-5.32812c.25927,4.47461.6582,9.47656,1.2124,11.52246a60.50689,60.50689,0,0,0,15.4834,26.73095,39.47624,39.47624,0,0,1,11.31543,27.69629v8.44971a34.89014,34.89014,0,1,0,69.78027,0v-.66992a39.17261,39.17261,0,0,1,6.08667-21.00775c.30981-.07013.62256-.14026.92993-.21,7.13086-1.61944,13.92676-3.15045,20.937-1.66247C311.67225,391.059,311.1703,391.38153,310.661,391.69482Zm15.48218-51.57367,13.40576,5.2403-.0022.00867q-.28344,1.871-.60058,3.67376a82.349,82.349,0,0,0-8.33594-2.62347c-1.72315-.44159-3.4751-.79108-5.24414-1.07574Q325.77992,342.854,326.1432,340.12115Zm-21.43042-8.377,14.7251,5.75592c-.00562.03583-.01954.06824-.02393.10443q-.45557,3.685-1.00781,6.92322c-2.873-.23859-5.752-.38715-8.5918-.5282-16.65137-.82721-29.17139-1.464-31.63232-18.21527l5.41064,3.5766a12.33136,12.33136,0,0,0,13.91992-.249l1.16358-.83167A22.84721,22.84721,0,0,0,304.71278,331.74414Zm-26.94336-14.6239a120.48811,120.48811,0,0,1,3.35229-24.03766L297.619,313.874a5.2807,5.2807,0,0,1-1.19629,7.4126l-2.9834,2.13233a5.295,5.295,0,0,1-5.98242.10546Zm42.82812-83.80957-.09277.73572a3.4823,3.4823,0,0,0,.09277,1.32977v22.8382a64.45631,64.45631,0,0,1-20.63989,47.34515L283.42957,284.729c-.0371-.04681-.08154-.08673-.12109-.13153.83057-2.965,1.68457-5.80157,2.5127-8.44806a3.49964,3.49964,0,1,0-6.67969-2.09082c-3.88672,12.41883-8.35254,28.737-8.4082,44.85822-.00049.01971-.00586.038-.00586.0578,0,.0163.00586.03155.00586.04785-.06055,30.03967,20.54907,31.06506,38.73437,31.96826,6.57227.32666,13.36914.66407,19.4043,2.21094,19.34765,4.958,35.87988,17.72852,44.22461,34.16113a63.18324,63.18324,0,0,1,6.36132,21.12061l-12.52343-2.20117a10.52872,10.52872,0,0,0-11.32422,5.8833l-4.65332,9.92334q-6.75879-16.58734-16.53443-26.29822c-.06079-.058-.116-.12061-.18066-.17419a46.103,46.103,0,0,0-12.85107-9.079c-.02222-.01214-.04517-.02191-.06763-.03363-.91065-.42346-1.83154-.82067-2.76856-1.17712-10.39062-3.95166-19.78418-1.81836-28.87011.24365-10.0293,2.27735-19.50293,4.42774-30.98242-.76172-13.57911-6.13867-23.09473-21.18652-28.28272-44.72607a112.48723,112.48723,0,0,1,7.12695-69.05176,3.49993,3.49993,0,1,0-6.40527-2.82324c-.84912,1.92615-1.62646,3.879-2.37109,5.84283a72.71447,72.71447,0,0,0-21.58643,23.08149c-.53857.92376-1.05542,1.87695-1.56055,2.84344a62.07222,62.07222,0,0,1-14.26562-39.71112V235.37744a3.47884,3.47884,0,0,0,.09277-1.33105l-.09277-.73566v-.33612a36.78311,36.78311,0,0,1,15.376-29.87305l.48925-.34961a44.599,44.599,0,0,1,31.99854-7.939l16.29,2.18994a3.468,3.468,0,0,0,.93261,0l16.29151-2.18994a44.55207,44.55207,0,0,1,31.93262,7.89111c.1123.08447.22753.166.34375.24707l.21191.15137a36.78271,36.78271,0,0,1,15.374,29.87207Zm-11.24023-35.85608c-.11231-.08447-.22754-.166-.34375-.24707l-.21094-.15088a51.56023,51.56023,0,0,0-37.00195-9.18115l-15.82324,2.12744-15.82276-2.12744a51.56539,51.56539,0,0,0-37.00293,9.18164l-.48828.34912a43.70252,43.70252,0,0,0-13.78271,16.26514L183.87,173.937a64.712,64.712,0,0,1-.01367-16.06775c.00342-.02185.00464-.04382.00757-.06573a64.32283,64.32283,0,0,1,29.19385-46.23395,17.92072,17.92072,0,0,0,11.80347,4.43774h62.23242a17.92092,17.92092,0,0,0,11.80346-4.4378,64.32408,64.32408,0,0,1,29.19458,46.24371c.0022.01679.00318.03363.00562.05036a64.71207,64.71207,0,0,1-.01245,16.07293l-5.00977,39.727A43.51073,43.51073,0,0,0,309.35731,197.45459ZM415.60633,333.103a2.75172,2.75172,0,0,1-1.793,4.56836c-16.53418,1.63037-40.55175.28125-61.081-15.40772-12.56983-9.60809-23.11475-24.34521-29.08545-40.564a71.66233,71.66233,0,0,0,3.95068-23.48535V233.753l.58106-4.60687c1.72021-1.35706,3.40332-2.74805,5.0332-4.18506,4.60938-2.72522,11.13379-5.24512,20.34668-6.55139,9.52441-1.34912,16.27441.374,22.80274,2.03955,6.8955,1.75879,13.40917,3.4209,21.875,1.27832,9.31542-2.35742,17.73046-8.68213,25.01171-18.79932a2.76646,2.76646,0,0,1,4.667.27246c8.33007,15.271,11.0625,29.15186,8.12207,41.25537-2.83106,11.62647-10.21094,19.36866-17.34766,26.85547-7.76074,8.14258-15.78711,16.562-16.56543,29.312C401.47938,311.27686,406.01747,322.20557,415.60633,333.103Zm-7.69922-72.06592c7.32325-7.68262,11.89649-12.86963,13.65723-20.10547a27.83939,27.83939,0,0,0,.64941-8.5581,3.5,3.5,0,0,0-5.37207-2.70411,51.1656,51.1656,0,0,1-14.95312,6.49805,46.79848,46.79848,0,0,1-11.61524,1.45654c-6.834,0-12.79785-1.5205-17.59277-2.74365-4.335-1.10547-8.0791-2.06055-12.41016-2.06055a32.68672,32.68672,0,0,0-4.626.33838c-12.49317,1.77-17.23535,5.96875-18.69531,7.69239-3.01172,3.5581-4.25586,10.78759-3.32715,19.33789,2.03222,18.74267,13.34472,38.93457,28.14843,50.24414A61.16894,61.16894,0,0,0,385.10047,321.294a3.50108,3.50108,0,0,0,4.15821-4.40088,49.76693,49.76693,0,0,1-1.99805-17.17774C388.36707,281.54053,399.66,269.69092,407.90711,261.03711ZM380.2743,299.291a56.14639,56.14639,0,0,0,.833,13.582,52.90414,52.90414,0,0,1-15.08692-8.00293c-13.377-10.21924-23.60058-28.479-25.43945-45.437-.95019-8.75293.91309-13.11719,1.71094-14.05957.32031-.37842,3.44531-3.74219,14.335-5.28467a25.72951,25.72951,0,0,1,3.64355-.269c3.45215,0,6.48438.77344,10.68458,1.84473,5.17089,1.31836,11.60546,2.95947,19.31835,2.95947a53.69292,53.69292,0,0,0,13.33106-1.67041,57.35509,57.35509,0,0,0,11.26758-4.15478c-.03418.16015-.07032.31933-.1084.47656-1.376,5.65283-5.42676,10.1167-11.92481,16.93408C393.84754,265.64307,381.535,278.563,380.2743,299.291ZM335.72621,480.93835a3.5,3.5,0,1,0-3.5,3.5A3.49991,3.49991,0,0,0,335.72621,480.93835Zm-161,0a3.5,3.5,0,1,0,3.5-3.5A3.50009,3.50009,0,0,0,174.72621,480.93835ZM156.308,233.15771a32.66932,32.66932,0,0,0-4.624-.33789c-4.33057,0-8.07471.95508-12.41065,2.06055-4.792,1.22217-10.75537,2.74317-17.59033,2.74365h-.00537a46.74908,46.74908,0,0,1-11.61181-1.457,51.128,51.128,0,0,1-14.95264-6.49756,3.50006,3.50006,0,0,0-5.37207,2.70313,27.8498,27.8498,0,0,0,.64844,8.55762c1.76074,7.23486,6.334,12.42236,13.65722,20.10693,8.24707,8.65185,19.541,20.50146,20.64649,38.67822a49.72107,49.72107,0,0,1-1.99707,17.17774,3.50051,3.50051,0,0,0,4.15722,4.40088,61.163,61.163,0,0,0,23.33106-10.86133c14.8042-11.30908,26.11621-31.501,28.14892-50.24414.92725-8.5503-.31689-15.77979-3.32812-19.33838C173.54676,239.12744,168.806,234.92822,156.308,233.15771Zm15.06641,26.27588c-1.83936,16.958-12.0625,35.21729-25.43945,45.43653a52.90026,52.90026,0,0,1-15.08741,8.00293,56.13319,56.13319,0,0,0,.833-13.58252c-1.26074-20.73-13.57519-33.64991-22.56641-43.083-6.49658-6.81641-10.54785-11.28125-11.92285-16.93213q-.05785-.23656-.10888-.47656a57.31783,57.31783,0,0,0,11.26709,4.15429,53.64638,53.64638,0,0,0,13.32763,1.6709h.00635c7.71338-.00048,14.14893-1.6416,19.31934-2.96045,4.19677-1.07031,7.22949-1.84375,10.68115-1.84375a25.79131,25.79131,0,0,1,3.64258.26856c10.89306,1.54346,14.01513,4.90576,14.335,5.28418C170.45985,246.31543,172.32362,250.68018,171.3744,259.43359Zm84.603-215.35791a11.12524,11.12524,0,1,0-11.125-11.12548A11.13748,11.13748,0,0,0,255.97743,44.07568Zm0-15.25048a4.12524,4.12524,0,1,1-4.125,4.125A4.12982,4.12982,0,0,1,255.97743,28.8252Zm-42,124.665a10.5,10.5,0,1,0,10.5,10.5A10.51211,10.51211,0,0,0,213.97743,153.49023Zm0,14a3.5,3.5,0,1,1,3.5-3.5A3.50424,3.50424,0,0,1,213.97743,167.49023Zm13.66992,68.11963a15.75424,15.75424,0,0,1-17.47071.001,3.50006,3.50006,0,1,0-3.87011,5.833,22.79259,22.79259,0,0,0,12.06738,3.80371c.17822.00439.35449.00635.53027.00635a23.11052,23.11052,0,0,0,12.61036-3.80909,3.50007,3.50007,0,0,0-3.86719-5.835Zm70.33008-82.11963a10.5,10.5,0,1,0,10.5,10.5A10.5118,10.5118,0,0,0,297.97743,153.49023Zm0,14a3.5,3.5,0,1,1,3.5-3.5A3.50424,3.50424,0,0,1,297.97743,167.49023Zm-40.00977-41.251a3.50106,3.50106,0,0,0-3.98,0,30.7942,30.7942,0,0,0,0,50.71679,3.50076,3.50076,0,0,0,3.98,0,30.79547,30.79547,0,0,0,0-50.71679Zm-1.99023,43.42285a23.78388,23.78388,0,0,1,0-36.12891,23.78479,23.78479,0,0,1,0,36.12891Z"/></svg>